<svg xmlns="http://www.w3.org/2000/svg" width="900" height="400" viewBox="0 0 900 400" role="img" aria-labelledby="t d"><title id="t">120 contributions in the last 30 days</title><desc id="d">A slowly turning 3D skyline of my GitHub contributions in the last 30 days: 15 active days, best streak 4 days.</desc><defs><path id="g40" d="M3 0h1v1h-1zM2 1h1v1h-1zM1 2h1v1h-1zM1 3h1v1h-1zM1 4h1v1h-1zM2 5h1v1h-1zM3 6h1v1h-1z"/><path id="g41" d="M1 0h1v1h-1zM2 1h1v1h-1zM3 2h1v1h-1zM3 3h1v1h-1zM3 4h1v1h-1zM2 5h1v1h-1zM1 6h1v1h-1z"/><path id="g48" d="M1 0h3v1h-3zM0 1h1v1h-1zM4 1h1v1h-1zM0 2h1v1h-1zM3 2h2v1h-2zM0 3h1v1h-1zM2 3h1v1h-1zM4 3h1v1h-1zM0 4h2v1h-2zM4 4h1v1h-1zM0 5h1v1h-1zM4 5h1v1h-1zM1 6h3v1h-3z"/><path id="g49" d="M2 0h1v1h-1zM1 1h2v1h-2zM2 2h1v1h-1zM2 3h1v1h-1zM2 4h1v1h-1zM2 5h1v1h-1zM1 6h3v1h-3z"/><path id="g50" d="M1 0h3v1h-3zM0 1h1v1h-1zM4 1h1v1h-1zM4 2h1v1h-1zM3 3h1v1h-1zM2 4h1v1h-1zM1 5h1v1h-1zM0 6h5v1h-5z"/><path id="g51" d="M0 0h4v1h-4zM4 1h1v1h-1zM4 2h1v1h-1zM1 3h3v1h-3zM4 4h1v1h-1zM4 5h1v1h-1zM0 6h4v1h-4z"/><path id="g52" d="M3 0h1v1h-1zM2 1h2v1h-2zM1 2h1v1h-1zM3 2h1v1h-1zM0 3h1v1h-1zM3 3h1v1h-1zM0 4h5v1h-5zM3 5h1v1h-1zM3 6h1v1h-1z"/><path id="g53" d="M0 0h5v1h-5zM0 1h1v1h-1zM0 2h4v1h-4zM4 3h1v1h-1zM4 4h1v1h-1zM0 5h1v1h-1zM4 5h1v1h-1zM1 6h3v1h-3z"/><path id="g68" d="M0 0h4v1h-4zM0 1h1v1h-1zM4 1h1v1h-1zM0 2h1v1h-1zM4 2h1v1h-1zM0 3h1v1h-1zM4 3h1v1h-1zM0 4h1v1h-1zM4 4h1v1h-1zM0 5h1v1h-1zM4 5h1v1h-1zM0 6h4v1h-4z"/><path id="g79" d="M1 0h3v1h-3zM0 1h1v1h-1zM4 1h1v1h-1zM0 2h1v1h-1zM4 2h1v1h-1zM0 3h1v1h-1zM4 3h1v1h-1zM0 4h1v1h-1zM4 4h1v1h-1zM0 5h1v1h-1zM4 5h1v1h-1zM1 6h3v1h-3z"/><path id="g83" d="M1 0h4v1h-4zM0 1h1v1h-1zM0 2h1v1h-1zM1 3h3v1h-3zM4 4h1v1h-1zM4 5h1v1h-1zM0 6h4v1h-4z"/><path id="g97" d="M1 2h3v1h-3zM4 3h1v1h-1zM1 4h4v1h-4zM0 5h1v1h-1zM4 5h1v1h-1zM1 6h4v1h-4z"/><path id="g98" d="M0 0h1v1h-1zM0 1h1v1h-1zM0 2h4v1h-4zM0 3h1v1h-1zM4 3h1v1h-1zM0 4h1v1h-1zM4 4h1v1h-1zM0 5h1v1h-1zM4 5h1v1h-1zM0 6h4v1h-4z"/><path id="g99" d="M1 2h3v1h-3zM0 3h1v1h-1zM0 4h1v1h-1zM0 5h1v1h-1zM4 5h1v1h-1zM1 6h3v1h-3z"/><path id="g100" d="M4 0h1v1h-1zM4 1h1v1h-1zM1 2h4v1h-4zM0 3h1v1h-1zM4 3h1v1h-1zM0 4h1v1h-1zM4 4h1v1h-1zM0 5h1v1h-1zM4 5h1v1h-1zM1 6h4v1h-4z"/><path id="g101" d="M1 2h3v1h-3zM0 3h1v1h-1zM4 3h1v1h-1zM0 4h5v1h-5zM0 5h1v1h-1zM1 6h3v1h-3z"/><path id="g102" d="M2 0h2v1h-2zM1 1h1v1h-1zM4 1h1v1h-1zM1 2h1v1h-1zM0 3h3v1h-3zM1 4h1v1h-1zM1 5h1v1h-1zM1 6h1v1h-1z"/><path id="g104" d="M0 0h1v1h-1zM0 1h1v1h-1zM0 2h1v1h-1zM2 2h2v1h-2zM0 3h2v1h-2zM4 3h1v1h-1zM0 4h1v1h-1zM4 4h1v1h-1zM0 5h1v1h-1zM4 5h1v1h-1zM0 6h1v1h-1zM4 6h1v1h-1z"/><path id="g105" d="M2 0h1v1h-1zM1 2h2v1h-2zM2 3h1v1h-1zM2 4h1v1h-1zM2 5h1v1h-1zM1 6h3v1h-3z"/><path id="g107" d="M0 0h1v1h-1zM0 1h1v1h-1zM0 2h1v1h-1zM3 2h1v1h-1zM0 3h1v1h-1zM2 3h1v1h-1zM0 4h2v1h-2zM0 5h1v1h-1zM2 5h1v1h-1zM0 6h1v1h-1zM3 6h1v1h-1z"/><path id="g108" d="M1 0h2v1h-2zM2 1h1v1h-1zM2 2h1v1h-1zM2 3h1v1h-1zM2 4h1v1h-1zM2 5h1v1h-1zM1 6h3v1h-3z"/><path id="g109" d="M0 2h2v1h-2zM3 2h1v1h-1zM0 3h1v1h-1zM2 3h1v1h-1zM4 3h1v1h-1zM0 4h1v1h-1zM2 4h1v1h-1zM4 4h1v1h-1zM0 5h1v1h-1zM4 5h1v1h-1zM0 6h1v1h-1zM4 6h1v1h-1z"/><path id="g110" d="M0 2h1v1h-1zM2 2h2v1h-2zM0 3h2v1h-2zM4 3h1v1h-1zM0 4h1v1h-1zM4 4h1v1h-1zM0 5h1v1h-1zM4 5h1v1h-1zM0 6h1v1h-1zM4 6h1v1h-1z"/><path id="g111" d="M1 2h3v1h-3zM0 3h1v1h-1zM4 3h1v1h-1zM0 4h1v1h-1zM4 4h1v1h-1zM0 5h1v1h-1zM4 5h1v1h-1zM1 6h3v1h-3z"/><path id="g112" d="M0 2h4v1h-4zM0 3h1v1h-1zM4 3h1v1h-1zM0 4h1v1h-1zM4 4h1v1h-1zM0 5h1v1h-1zM4 5h1v1h-1zM0 6h4v1h-4zM0 7h1v1h-1zM0 8h1v1h-1z"/><path id="g114" d="M0 2h1v1h-1zM2 2h2v1h-2zM0 3h2v1h-2zM4 3h1v1h-1zM0 4h1v1h-1zM0 5h1v1h-1zM0 6h1v1h-1z"/><path id="g115" d="M1 2h4v1h-4zM0 3h1v1h-1zM1 4h3v1h-3zM4 5h1v1h-1zM0 6h4v1h-4z"/><path id="g116" d="M1 0h1v1h-1zM1 1h1v1h-1zM0 2h3v1h-3zM1 3h1v1h-1zM1 4h1v1h-1zM1 5h1v1h-1zM4 5h1v1h-1zM2 6h2v1h-2z"/><path id="g117" d="M0 2h1v1h-1zM4 2h1v1h-1zM0 3h1v1h-1zM4 3h1v1h-1zM0 4h1v1h-1zM4 4h1v1h-1zM0 5h1v1h-1zM3 5h2v1h-2zM1 6h2v1h-2zM4 6h1v1h-1z"/><path id="g118" d="M0 2h1v1h-1zM4 2h1v1h-1zM0 3h1v1h-1zM4 3h1v1h-1zM0 4h1v1h-1zM4 4h1v1h-1zM1 5h1v1h-1zM3 5h1v1h-1zM2 6h1v1h-1z"/><path id="g121" d="M0 2h1v1h-1zM4 2h1v1h-1zM0 3h1v1h-1zM4 3h1v1h-1zM0 4h1v1h-1zM4 4h1v1h-1zM0 5h1v1h-1zM4 5h1v1h-1zM1 6h4v1h-4zM4 7h1v1h-1zM1 8h3v1h-3z"/><path id="g183" d="M2 3h1v1h-1z"/><linearGradient id="bar0" x1="0" y1="1" x2="0" y2="0"><stop offset="0" stop-color="#1f6f3a" stop-opacity=".15"/><stop offset="1" stop-color="#1f6f3a"/></linearGradient><linearGradient id="bar1" x1="0" y1="1" x2="0" y2="0"><stop offset="0" stop-color="#238636" stop-opacity=".15"/><stop offset="1" stop-color="#238636"/></linearGradient><linearGradient id="bar2" x1="0" y1="1" x2="0" y2="0"><stop offset="0" stop-color="#2ea043" stop-opacity=".15"/><stop offset="1" stop-color="#2ea043"/></linearGradient><linearGradient id="bar3" x1="0" y1="1" x2="0" y2="0"><stop offset="0" stop-color="#3fb950" stop-opacity=".15"/><stop offset="1" stop-color="#3fb950"/></linearGradient><linearGradient id="bar4" x1="0" y1="1" x2="0" y2="0"><stop offset="0" stop-color="#7ee787" stop-opacity=".15"/><stop offset="1" stop-color="#7ee787"/></linearGradient><linearGradient id="sweep" x1="0" y1="0" x2="1" y2="0"><stop offset="0" stop-color="#fff1e8" stop-opacity="0"/><stop offset=".5" stop-color="#fff1e8" stop-opacity=".16"/><stop offset="1" stop-color="#fff1e8" stop-opacity="0"/></linearGradient></defs><g shape-rendering="crispEdges"><path fill="#000000" d="M8 6h886v2h2v386h-2v2h-886v-2h-2v-386h2z"/><path fill="#30405f" d="M4 2h886v2h2v386h-2v2h-886v-2h-2v-386h2z"/><path fill="#0f1629" d="M6 4h882v2h2v382h-2v2h-882v-2h-2v-382h2z"/><g fill="#7ee787" transform="translate(30 22) scale(3)"><use href="#g49" x="0"/><use href="#g50" x="6"/><use href="#g48" x="12"/></g><g fill="#fff1e8" transform="translate(95 29) scale(2)"><use href="#g99" x="0"/><use href="#g111" x="6"/><use href="#g110" x="12"/><use href="#g116" x="18"/><use href="#g114" x="24"/><use href="#g105" x="30"/><use href="#g98" x="36"/><use href="#g117" x="42"/><use href="#g116" x="48"/><use href="#g105" x="54"/><use href="#g111" x="60"/><use href="#g110" x="66"/><use href="#g115" x="72"/><use href="#g105" x="84"/><use href="#g110" x="90"/><use href="#g116" x="102"/><use href="#g104" x="108"/><use href="#g101" x="114"/><use href="#g108" x="126"/><use href="#g97" x="132"/><use href="#g115" x="138"/><use href="#g116" x="144"/><use href="#g51" x="156"/><use href="#g48" x="162"/><use href="#g100" x="174"/><use href="#g97" x="180"/><use href="#g121" x="186"/><use href="#g115" x="192"/></g><g fill="#c2c3c7" transform="translate(30 58) scale(2)"><use href="#g49" x="0"/><use href="#g53" x="6"/><use href="#g97" x="18"/><use href="#g99" x="24"/><use href="#g116" x="30"/><use href="#g105" x="36"/><use href="#g118" x="42"/><use href="#g101" x="48"/><use href="#g100" x="60"/><use href="#g97" x="66"/><use href="#g121" x="72"/><use href="#g115" x="78"/><use href="#g183" x="96"/><use href="#g98" x="114"/><use href="#g101" x="120"/><use href="#g115" x="126"/><use href="#g116" x="132"/><use href="#g115" x="144"/><use href="#g116" x="150"/><use href="#g114" x="156"/><use href="#g101" x="162"/><use href="#g97" x="168"/><use href="#g107" x="174"/><use href="#g52" x="186"/><use href="#g100" x="198"/><use href="#g97" x="204"/><use href="#g121" x="210"/><use href="#g115" x="216"/><use href="#g183" x="234"/><use href="#g98" x="252"/><use href="#g117" x="258"/><use href="#g115" x="264"/><use href="#g105" x="270"/><use href="#g101" x="276"/><use href="#g115" x="282"/><use href="#g116" x="288"/><use href="#g79" x="300"/><use href="#g99" x="306"/><use href="#g116" x="312"/><use href="#g50" x="324"/><use href="#g40" x="336"/><use href="#g50" x="342"/><use href="#g49" x="348"/><use href="#g41" x="354"/></g><g transform="translate(450 262) scale(1 0.44)"><g><animateTransform attributeName="transform" type="rotate" values="-26;18;-26" keyTimes="0;.5;1" calcMode="spline" keySplines=".45 0 .55 1;.45 0 .55 1" dur="16s" repeatCount="indefinite"/><rect x="-128.8" y="-174.8" width="257.6" height="349.6" fill="#16213d" stroke="#3d4f75" stroke-opacity=".9" stroke-width="2" vector-effect="non-scaling-stroke"/><path d="M90.5 -139.5h3v3h-3zM44.5 -139.5h3v3h-3zM-47.5 -139.5h3v3h-3zM90.5 -93.5h3v3h-3zM44.5 -93.5h3v3h-3zM-47.5 -93.5h3v3h-3zM44.5 -47.5h3v3h-3zM-47.5 -47.5h3v3h-3zM-47.5 -1.5h3v3h-3zM-1.5 44.5h3v3h-3zM-93.5 44.5h3v3h-3zM-1.5 90.5h3v3h-3zM-93.5 90.5h3v3h-3zM-47.5 136.5h3v3h-3zM-93.5 136.5h3v3h-3z" fill="#5a6b8f" fill-opacity=".5"/><rect x="-6.0" y="-144.0" width="12.0" height="12.0" fill="#3fb950" fill-opacity=".55"/><rect x="-6.0" y="-98.0" width="12.0" height="12.0" fill="#3fb950" fill-opacity=".55"/><rect x="86.0" y="-52.0" width="12.0" height="12.0" fill="#3fb950" fill-opacity=".55"/><rect x="-6.0" y="-52.0" width="12.0" height="12.0" fill="#1f6f3a" fill-opacity=".55"/><rect x="86.0" y="-6.0" width="12.0" height="12.0" fill="#1f6f3a" fill-opacity=".55"/><rect x="40.0" y="-6.0" width="12.0" height="12.0" fill="#1f6f3a" fill-opacity=".55"/><rect x="-6.0" y="-6.0" width="12.0" height="12.0" fill="#1f6f3a" fill-opacity=".55"/><rect x="86.0" y="40.0" width="12.0" height="12.0" fill="#3fb950" fill-opacity=".55"/><rect x="40.0" y="40.0" width="12.0" height="12.0" fill="#1f6f3a" fill-opacity=".55"/><rect x="-52.0" y="40.0" width="12.0" height="12.0" fill="#238636" fill-opacity=".55"/><rect x="86.0" y="86.0" width="12.0" height="12.0" fill="#7ee787" fill-opacity=".55"/><rect x="40.0" y="86.0" width="12.0" height="12.0" fill="#1f6f3a" fill-opacity=".55"/><rect x="-52.0" y="86.0" width="12.0" height="12.0" fill="#238636" fill-opacity=".55"/><rect x="40.0" y="132.0" width="12.0" height="12.0" fill="#238636" fill-opacity=".55"/><rect x="-6.0" y="132.0" width="12.0" height="12.0" fill="#238636" fill-opacity=".55"/><path d="M-92.0 161.0v13.8M92.0 161.0v13.8" stroke="#c2c3c7" stroke-opacity=".6" stroke-width="2" vector-effect="non-scaling-stroke"/><clipPath id="floor"><rect x="-128.8" y="-174.8" width="257.6" height="349.6"/></clipPath><g clip-path="url(#floor)"><rect x="-55.2" y="-174.8" width="110.4" height="349.6" fill="url(#sweep)" opacity="0"><animateTransform attributeName="transform" type="translate" values="-138.0 0;-138.0 0;138.0 0;138.0 0" keyTimes="0;.1;.6;1" dur="9s" repeatCount="indefinite"/><animate attributeName="opacity" values="0;0;1;1;0;0" keyTimes="0;.1;.14;.56;.6;1" dur="9s" repeatCount="indefinite"/></rect></g><g transform="translate(0.0 -138.0)"><title>14 contributions on Sep 13, 2026</title><g><animateTransform attributeName="transform" type="rotate" values="26;-18;26" keyTimes="0;.5;1" calcMode="spline" keySplines=".45 0 .55 1;.45 0 .55 1" dur="16s" repeatCount="indefinite"/><g transform="scale(1 2.2727)"><rect x="-1.5" y="-93.5" width="3" height="93.5" fill="url(#bar3)"><animate attributeName="height" values="0;0;93.5" dur="1.60s" fill="freeze" calcMode="spline" keyTimes="0;0.437;1" keySplines="0 0 1 1;.2 .8 .2 1"/><animate attributeName="y" values="0;0;-93.5" dur="1.60s" fill="freeze" calcMode="spline" keyTimes="0;0.437;1" keySplines="0 0 1 1;.2 .8 .2 1"/></rect><g><animate attributeName="opacity" values="0;0;1" keyTimes="0;0.875;1" dur="1.60s" fill="freeze"/><rect x="-6" y="-99.5" width="12" height="12" fill="#3fb950" fill-opacity=".22"/><rect x="-3.5" y="-97.0" width="7" height="7" fill="#3fb950"/><rect x="-3.5" y="-97.0" width="3" height="2" fill="#fff1e8" fill-opacity=".85"/></g></g></g></g><g transform="translate(0.0 -92.0)"><title>15 contributions on Sep 14, 2026</title><g><animateTransform attributeName="transform" type="rotate" values="26;-18;26" keyTimes="0;.5;1" calcMode="spline" keySplines=".45 0 .55 1;.45 0 .55 1" dur="16s" repeatCount="indefinite"/><g transform="scale(1 2.2727)"><rect x="-1.5" y="-97.0" width="3" height="97.0" fill="url(#bar3)"><animate attributeName="height" values="0;0;97.0" dur="1.59s" fill="freeze" calcMode="spline" keyTimes="0;0.434;1" keySplines="0 0 1 1;.2 .8 .2 1"/><animate attributeName="y" values="0;0;-97.0" dur="1.59s" fill="freeze" calcMode="spline" keyTimes="0;0.434;1" keySplines="0 0 1 1;.2 .8 .2 1"/></rect><g><animate attributeName="opacity" values="0;0;1" keyTimes="0;0.874;1" dur="1.59s" fill="freeze"/><rect x="-6" y="-103.0" width="12" height="12" fill="#3fb950" fill-opacity=".22"/><rect x="-3.5" y="-100.5" width="7" height="7" fill="#3fb950"/><rect x="-3.5" y="-100.5" width="3" height="2" fill="#fff1e8" fill-opacity=".85"/></g></g></g></g><g transform="translate(92.0 -46.0)"><title>14 contributions on Sep 29, 2026</title><g><animateTransform attributeName="transform" type="rotate" values="26;-18;26" keyTimes="0;.5;1" calcMode="spline" keySplines=".45 0 .55 1;.45 0 .55 1" dur="16s" repeatCount="indefinite"/><g transform="scale(1 2.2727)"><rect x="-1.5" y="-93.5" width="3" height="93.5" fill="url(#bar3)"><animate attributeName="height" values="0;0;93.5" dur="1.82s" fill="freeze" calcMode="spline" keyTimes="0;0.505;1" keySplines="0 0 1 1;.2 .8 .2 1"/><animate attributeName="y" values="0;0;-93.5" dur="1.82s" fill="freeze" calcMode="spline" keyTimes="0;0.505;1" keySplines="0 0 1 1;.2 .8 .2 1"/></rect><g><animate attributeName="opacity" values="0;0;1" keyTimes="0;0.890;1" dur="1.82s" fill="freeze"/><rect x="-6" y="-99.5" width="12" height="12" fill="#3fb950" fill-opacity=".22"/><rect x="-3.5" y="-97.0" width="7" height="7" fill="#3fb950"/><rect x="-3.5" y="-97.0" width="3" height="2" fill="#fff1e8" fill-opacity=".85"/></g></g></g></g><g transform="translate(0.0 -46.0)"><title>1 contribution on Sep 15, 2026</title><g><animateTransform attributeName="transform" type="rotate" values="26;-18;26" keyTimes="0;.5;1" calcMode="spline" keySplines=".45 0 .55 1;.45 0 .55 1" dur="16s" repeatCount="indefinite"/><g transform="scale(1 2.2727)"><rect x="-1.5" y="-28.7" width="3" height="28.7" fill="url(#bar0)"><animate attributeName="height" values="0;0;28.7" dur="1.58s" fill="freeze" calcMode="spline" keyTimes="0;0.430;1" keySplines="0 0 1 1;.2 .8 .2 1"/><animate attributeName="y" values="0;0;-28.7" dur="1.58s" fill="freeze" calcMode="spline" keyTimes="0;0.430;1" keySplines="0 0 1 1;.2 .8 .2 1"/></rect><g><animate attributeName="opacity" values="0;0;1" keyTimes="0;0.873;1" dur="1.58s" fill="freeze"/><rect x="-6" y="-34.7" width="12" height="12" fill="#1f6f3a" fill-opacity=".22"/><rect x="-3.5" y="-32.2" width="7" height="7" fill="#1f6f3a"/><rect x="-3.5" y="-32.2" width="3" height="2" fill="#fff1e8" fill-opacity=".85"/></g></g></g></g><g transform="translate(92.0 0.0)"><title>4 contributions on Sep 30, 2026</title><g><animateTransform attributeName="transform" type="rotate" values="26;-18;26" keyTimes="0;.5;1" calcMode="spline" keySplines=".45 0 .55 1;.45 0 .55 1" dur="16s" repeatCount="indefinite"/><g transform="scale(1 2.2727)"><rect x="-1.5" y="-50.5" width="3" height="50.5" fill="url(#bar0)"><animate attributeName="height" values="0;0;50.5" dur="1.81s" fill="freeze" calcMode="spline" keyTimes="0;0.503;1" keySplines="0 0 1 1;.2 .8 .2 1"/><animate attributeName="y" values="0;0;-50.5" dur="1.81s" fill="freeze" calcMode="spline" keyTimes="0;0.503;1" keySplines="0 0 1 1;.2 .8 .2 1"/></rect><g><animate attributeName="opacity" values="0;0;1" keyTimes="0;0.890;1" dur="1.81s" fill="freeze"/><rect x="-6" y="-56.5" width="12" height="12" fill="#1f6f3a" fill-opacity=".22"/><rect x="-3.5" y="-54.0" width="7" height="7" fill="#1f6f3a"/><rect x="-3.5" y="-54.0" width="3" height="2" fill="#fff1e8" fill-opacity=".85"/></g></g></g></g><g transform="translate(46.0 0.0)"><title>1 contribution on Sep 23, 2026</title><g><animateTransform attributeName="transform" type="rotate" values="26;-18;26" keyTimes="0;.5;1" calcMode="spline" keySplines=".45 0 .55 1;.45 0 .55 1" dur="16s" repeatCount="indefinite"/><g transform="scale(1 2.2727)"><rect x="-1.5" y="-28.7" width="3" height="28.7" fill="url(#bar0)"><animate attributeName="height" values="0;0;28.7" dur="1.69s" fill="freeze" calcMode="spline" keyTimes="0;0.467;1" keySplines="0 0 1 1;.2 .8 .2 1"/><animate attributeName="y" values="0;0;-28.7" dur="1.69s" fill="freeze" calcMode="spline" keyTimes="0;0.467;1" keySplines="0 0 1 1;.2 .8 .2 1"/></rect><g><animate attributeName="opacity" values="0;0;1" keyTimes="0;0.882;1" dur="1.69s" fill="freeze"/><rect x="-6" y="-34.7" width="12" height="12" fill="#1f6f3a" fill-opacity=".22"/><rect x="-3.5" y="-32.2" width="7" height="7" fill="#1f6f3a"/><rect x="-3.5" y="-32.2" width="3" height="2" fill="#fff1e8" fill-opacity=".85"/></g></g></g></g><g transform="translate(0.0 0.0)"><title>4 contributions on Sep 16, 2026</title><g><animateTransform attributeName="transform" type="rotate" values="26;-18;26" keyTimes="0;.5;1" calcMode="spline" keySplines=".45 0 .55 1;.45 0 .55 1" dur="16s" repeatCount="indefinite"/><g transform="scale(1 2.2727)"><rect x="-1.5" y="-50.5" width="3" height="50.5" fill="url(#bar0)"><animate attributeName="height" values="0;0;50.5" dur="1.57s" fill="freeze" calcMode="spline" keyTimes="0;0.427;1" keySplines="0 0 1 1;.2 .8 .2 1"/><animate attributeName="y" values="0;0;-50.5" dur="1.57s" fill="freeze" calcMode="spline" keyTimes="0;0.427;1" keySplines="0 0 1 1;.2 .8 .2 1"/></rect><g><animate attributeName="opacity" values="0;0;1" keyTimes="0;0.873;1" dur="1.57s" fill="freeze"/><rect x="-6" y="-56.5" width="12" height="12" fill="#1f6f3a" fill-opacity=".22"/><rect x="-3.5" y="-54.0" width="7" height="7" fill="#1f6f3a"/><rect x="-3.5" y="-54.0" width="3" height="2" fill="#fff1e8" fill-opacity=".85"/></g></g></g></g><g transform="translate(92.0 46.0)"><title>16 contributions on Oct 1, 2026</title><g><animateTransform attributeName="transform" type="rotate" values="26;-18;26" keyTimes="0;.5;1" calcMode="spline" keySplines=".45 0 .55 1;.45 0 .55 1" dur="16s" repeatCount="indefinite"/><g transform="scale(1 2.2727)"><rect x="-1.5" y="-100.3" width="3" height="100.3" fill="url(#bar3)"><animate attributeName="height" values="0;0;100.3" dur="1.80s" fill="freeze" calcMode="spline" keyTimes="0;0.500;1" keySplines="0 0 1 1;.2 .8 .2 1"/><animate attributeName="y" values="0;0;-100.3" dur="1.80s" fill="freeze" calcMode="spline" keyTimes="0;0.500;1" keySplines="0 0 1 1;.2 .8 .2 1"/></rect><g><animate attributeName="opacity" values="0;0;1" keyTimes="0;0.889;1" dur="1.80s" fill="freeze"/><rect x="-6" y="-106.3" width="12" height="12" fill="#3fb950" fill-opacity=".22"/><rect x="-3.5" y="-103.8" width="7" height="7" fill="#3fb950"/><rect x="-3.5" y="-103.8" width="3" height="2" fill="#fff1e8" fill-opacity=".85"/></g></g></g></g><g transform="translate(46.0 46.0)"><title>1 contribution on Sep 24, 2026</title><g><animateTransform attributeName="transform" type="rotate" values="26;-18;26" keyTimes="0;.5;1" calcMode="spline" keySplines=".45 0 .55 1;.45 0 .55 1" dur="16s" repeatCount="indefinite"/><g transform="scale(1 2.2727)"><rect x="-1.5" y="-28.7" width="3" height="28.7" fill="url(#bar0)"><animate attributeName="height" values="0;0;28.7" dur="1.68s" fill="freeze" calcMode="spline" keyTimes="0;0.464;1" keySplines="0 0 1 1;.2 .8 .2 1"/><animate attributeName="y" values="0;0;-28.7" dur="1.68s" fill="freeze" calcMode="spline" keyTimes="0;0.464;1" keySplines="0 0 1 1;.2 .8 .2 1"/></rect><g><animate attributeName="opacity" values="0;0;1" keyTimes="0;0.881;1" dur="1.68s" fill="freeze"/><rect x="-6" y="-34.7" width="12" height="12" fill="#1f6f3a" fill-opacity=".22"/><rect x="-3.5" y="-32.2" width="7" height="7" fill="#1f6f3a"/><rect x="-3.5" y="-32.2" width="3" height="2" fill="#fff1e8" fill-opacity=".85"/></g></g></g></g><g transform="translate(-46.0 46.0)"><title>6 contributions on Sep 10, 2026</title><g><animateTransform attributeName="transform" type="rotate" values="26;-18;26" keyTimes="0;.5;1" calcMode="spline" keySplines=".45 0 .55 1;.45 0 .55 1" dur="16s" repeatCount="indefinite"/><g transform="scale(1 2.2727)"><rect x="-1.5" y="-61.0" width="3" height="61.0" fill="url(#bar1)"><animate attributeName="height" values="0;0;61.0" dur="1.44s" fill="freeze" calcMode="spline" keyTimes="0;0.375;1" keySplines="0 0 1 1;.2 .8 .2 1"/><animate attributeName="y" values="0;0;-61.0" dur="1.44s" fill="freeze" calcMode="spline" keyTimes="0;0.375;1" keySplines="0 0 1 1;.2 .8 .2 1"/></rect><g><animate attributeName="opacity" values="0;0;1" keyTimes="0;0.861;1" dur="1.44s" fill="freeze"/><rect x="-6" y="-67.0" width="12" height="12" fill="#238636" fill-opacity=".22"/><rect x="-3.5" y="-64.5" width="7" height="7" fill="#238636"/><rect x="-3.5" y="-64.5" width="3" height="2" fill="#fff1e8" fill-opacity=".85"/></g></g></g></g><g transform="translate(92.0 92.0)"><title>21 contributions on Oct 2, 2026</title><g><animateTransform attributeName="transform" type="rotate" values="26;-18;26" keyTimes="0;.5;1" calcMode="spline" keySplines=".45 0 .55 1;.45 0 .55 1" dur="16s" repeatCount="indefinite"/><g transform="scale(1 2.2727)"><rect x="-1.5" y="-116.0" width="3" height="116.0" fill="url(#bar4)"><animate attributeName="height" values="0;0;116.0" dur="1.79s" fill="freeze" calcMode="spline" keyTimes="0;0.497;1" keySplines="0 0 1 1;.2 .8 .2 1"/><animate attributeName="y" values="0;0;-116.0" dur="1.79s" fill="freeze" calcMode="spline" keyTimes="0;0.497;1" keySplines="0 0 1 1;.2 .8 .2 1"/></rect><g><animate attributeName="opacity" values="0;0;1" keyTimes="0;0.888;1" dur="1.79s" fill="freeze"/><rect x="-6" y="-122.0" width="12" height="12" fill="#7ee787" fill-opacity=".22"/><rect x="-3.5" y="-119.5" width="7" height="7" fill="#7ee787"/><rect x="-3.5" y="-119.5" width="3" height="2" fill="#fff1e8" fill-opacity=".85"/></g></g></g></g><g transform="translate(46.0 92.0)"><title>3 contributions on Sep 25, 2026</title><g><animateTransform attributeName="transform" type="rotate" values="26;-18;26" keyTimes="0;.5;1" calcMode="spline" keySplines=".45 0 .55 1;.45 0 .55 1" dur="16s" repeatCount="indefinite"/><g transform="scale(1 2.2727)"><rect x="-1.5" y="-44.4" width="3" height="44.4" fill="url(#bar0)"><animate attributeName="height" values="0;0;44.4" dur="1.67s" fill="freeze" calcMode="spline" keyTimes="0;0.461;1" keySplines="0 0 1 1;.2 .8 .2 1"/><animate attributeName="y" values="0;0;-44.4" dur="1.67s" fill="freeze" calcMode="spline" keyTimes="0;0.461;1" keySplines="0 0 1 1;.2 .8 .2 1"/></rect><g><animate attributeName="opacity" values="0;0;1" keyTimes="0;0.880;1" dur="1.67s" fill="freeze"/><rect x="-6" y="-50.4" width="12" height="12" fill="#1f6f3a" fill-opacity=".22"/><rect x="-3.5" y="-47.9" width="7" height="7" fill="#1f6f3a"/><rect x="-3.5" y="-47.9" width="3" height="2" fill="#fff1e8" fill-opacity=".85"/></g></g></g></g><g transform="translate(-46.0 92.0)"><title>6 contributions on Sep 11, 2026</title><g><animateTransform attributeName="transform" type="rotate" values="26;-18;26" keyTimes="0;.5;1" calcMode="spline" keySplines=".45 0 .55 1;.45 0 .55 1" dur="16s" repeatCount="indefinite"/><g transform="scale(1 2.2727)"><rect x="-1.5" y="-61.0" width="3" height="61.0" fill="url(#bar1)"><animate attributeName="height" values="0;0;61.0" dur="1.43s" fill="freeze" calcMode="spline" keyTimes="0;0.371;1" keySplines="0 0 1 1;.2 .8 .2 1"/><animate attributeName="y" values="0;0;-61.0" dur="1.43s" fill="freeze" calcMode="spline" keyTimes="0;0.371;1" keySplines="0 0 1 1;.2 .8 .2 1"/></rect><g><animate attributeName="opacity" values="0;0;1" keyTimes="0;0.860;1" dur="1.43s" fill="freeze"/><rect x="-6" y="-67.0" width="12" height="12" fill="#238636" fill-opacity=".22"/><rect x="-3.5" y="-64.5" width="7" height="7" fill="#238636"/><rect x="-3.5" y="-64.5" width="3" height="2" fill="#fff1e8" fill-opacity=".85"/></g></g></g></g><g transform="translate(46.0 138.0)"><title>8 contributions on Sep 26, 2026</title><g><animateTransform attributeName="transform" type="rotate" values="26;-18;26" keyTimes="0;.5;1" calcMode="spline" keySplines=".45 0 .55 1;.45 0 .55 1" dur="16s" repeatCount="indefinite"/><g transform="scale(1 2.2727)"><rect x="-1.5" y="-70.3" width="3" height="70.3" fill="url(#bar1)"><animate attributeName="height" values="0;0;70.3" dur="1.66s" fill="freeze" calcMode="spline" keyTimes="0;0.458;1" keySplines="0 0 1 1;.2 .8 .2 1"/><animate attributeName="y" values="0;0;-70.3" dur="1.66s" fill="freeze" calcMode="spline" keyTimes="0;0.458;1" keySplines="0 0 1 1;.2 .8 .2 1"/></rect><g><animate attributeName="opacity" values="0;0;1" keyTimes="0;0.880;1" dur="1.66s" fill="freeze"/><rect x="-6" y="-76.3" width="12" height="12" fill="#238636" fill-opacity=".22"/><rect x="-3.5" y="-73.8" width="7" height="7" fill="#238636"/><rect x="-3.5" y="-73.8" width="3" height="2" fill="#fff1e8" fill-opacity=".85"/></g></g></g></g><g transform="translate(0.0 138.0)"><title>6 contributions on Sep 19, 2026</title><g><animateTransform attributeName="transform" type="rotate" values="26;-18;26" keyTimes="0;.5;1" calcMode="spline" keySplines=".45 0 .55 1;.45 0 .55 1" dur="16s" repeatCount="indefinite"/><g transform="scale(1 2.2727)"><rect x="-1.5" y="-61.0" width="3" height="61.0" fill="url(#bar1)"><animate attributeName="height" values="0;0;61.0" dur="1.54s" fill="freeze" calcMode="spline" keyTimes="0;0.416;1" keySplines="0 0 1 1;.2 .8 .2 1"/><animate attributeName="y" values="0;0;-61.0" dur="1.54s" fill="freeze" calcMode="spline" keyTimes="0;0.416;1" keySplines="0 0 1 1;.2 .8 .2 1"/></rect><g><animate attributeName="opacity" values="0;0;1" keyTimes="0;0.870;1" dur="1.54s" fill="freeze"/><rect x="-6" y="-67.0" width="12" height="12" fill="#238636" fill-opacity=".22"/><rect x="-3.5" y="-64.5" width="7" height="7" fill="#238636"/><rect x="-3.5" y="-64.5" width="3" height="2" fill="#fff1e8" fill-opacity=".85"/></g></g></g></g><g transform="translate(-92.0 174.8)"><g><animateTransform attributeName="transform" type="rotate" values="26;-18;26" keyTimes="0;.5;1" calcMode="spline" keySplines=".45 0 .55 1;.45 0 .55 1" dur="16s" repeatCount="indefinite"/><g transform="scale(1 2.2727)"><g fill="#c2c3c7" transform="translate(-17 2) scale(2)"><use href="#g83" x="0"/><use href="#g101" x="6"/><use href="#g112" x="12"/></g></g></g></g><g transform="translate(92.0 174.8)"><g><animateTransform attributeName="transform" type="rotate" values="26;-18;26" keyTimes="0;.5;1" calcMode="spline" keySplines=".45 0 .55 1;.45 0 .55 1" dur="16s" repeatCount="indefinite"/><g transform="scale(1 2.2727)"><g fill="#c2c3c7" transform="translate(-17 2) scale(2)"><use href="#g79" x="0"/><use href="#g99" x="6"/><use href="#g116" x="12"/></g></g></g></g></g></g><g fill="#c2c3c7" transform="translate(678 366) scale(2)"><use href="#g108" x="0"/><use href="#g101" x="6"/><use href="#g115" x="12"/><use href="#g115" x="18"/></g><rect x="734" y="365" width="12" height="12" fill="#1f6f3a"/><rect x="750" y="365" width="12" height="12" fill="#238636"/><rect x="766" y="365" width="12" height="12" fill="#2ea043"/><rect x="782" y="365" width="12" height="12" fill="#3fb950"/><rect x="798" y="365" width="12" height="12" fill="#7ee787"/><g fill="#c2c3c7" transform="translate(818 366) scale(2)"><use href="#g109" x="0"/><use href="#g111" x="6"/><use href="#g114" x="12"/><use href="#g101" x="18"/></g><g fill="#8b949e" transform="translate(30 366) scale(2)"><use href="#g111" x="0"/><use href="#g112" x="6"/><use href="#g101" x="12"/><use href="#g110" x="18"/><use href="#g105" x="30"/><use href="#g110" x="36"/><use href="#g51" x="48"/><use href="#g68" x="54"/><use href="#g102" x="66"/><use href="#g111" x="72"/><use href="#g114" x="78"/><use href="#g97" x="90"/><use href="#g110" x="96"/><use href="#g121" x="102"/><use href="#g100" x="114"/><use href="#g97" x="120"/><use href="#g116" x="126"/><use href="#g101" x="132"/><use href="#g115" x="138"/></g></g></svg>
