<svg xmlns="http://www.w3.org/2000/svg" width="860" height="599" viewBox="0 0 860 599" role="img" aria-labelledby="t"><title id="t">What I&#x27;ve shipped. Software Developer at 4 Way Technologies, Delhi, Aug 2024 to now. Spicychat Ai &amp; Pixelchat Ai (20M+ VISITS/MO, 600K+ INSTALLS): AI character chat platforms, built for NextDay AI. Backend and frontend, end to end, on web, iOS and Android. Serverless microservices on AWS Lambda, API Gateway and DynamoDB. Event-driven jobs on EventBridge, SQS and Step Functions. Content moderation and payments features for SpicyChat. Localization in 9 languages, cached on Cloudflare&#x27;s CDN. Premium content via Contentful + GraphQL, no app release. Chatreal Ai (IOS + ANDROID): In-house AI companion app with 3D characters. In-app purchases and subscriptions, verified server-side. Real-time renewals and cancellations via Google Cloud Pub/Sub. NestJS APIs with rate limits on chat and LLM endpoints. Private client code, but happy to walk you through the design.</title><defs><path id="g38" d="M1 0h2v1h-2zM0 1h1v1h-1zM3 1h1v1h-1zM0 2h1v1h-1zM2 2h1v1h-1zM1 3h1v1h-1zM0 4h1v1h-1zM2 4h1v1h-1zM4 4h1v1h-1zM0 5h1v1h-1zM3 5h1v1h-1zM1 6h2v1h-2zM4 6h1v1h-1z"/><path id="g39" d="M2 0h1v1h-1zM2 1h1v1h-1zM1 2h1v1h-1z"/><path id="g43" d="M2 1h1v1h-1zM2 2h1v1h-1zM0 3h5v1h-5zM2 4h1v1h-1zM2 5h1v1h-1z"/><path id="g44" d="M1 5h2v1h-2zM2 6h1v1h-1zM1 7h1v1h-1z"/><path id="g45" d="M0 3h5v1h-5z"/><path id="g46" d="M1 5h2v1h-2zM1 6h2v1h-2z"/><path id="g47" d="M4 0h1v1h-1zM4 1h1v1h-1zM3 2h1v1h-1zM2 3h1v1h-1zM1 4h1v1h-1zM0 5h1v1h-1zM0 6h1v1h-1z"/><path id="g48" d="M1 0h3v1h-3zM0 1h1v1h-1zM4 1h1v1h-1zM0 2h1v1h-1zM3 2h2v1h-2zM0 3h1v1h-1zM2 3h1v1h-1zM4 3h1v1h-1zM0 4h2v1h-2zM4 4h1v1h-1zM0 5h1v1h-1zM4 5h1v1h-1zM1 6h3v1h-3z"/><path id="g50" d="M1 0h3v1h-3zM0 1h1v1h-1zM4 1h1v1h-1zM4 2h1v1h-1zM3 3h1v1h-1zM2 4h1v1h-1zM1 5h1v1h-1zM0 6h5v1h-5z"/><path id="g51" d="M0 0h4v1h-4zM4 1h1v1h-1zM4 2h1v1h-1zM1 3h3v1h-3zM4 4h1v1h-1zM4 5h1v1h-1zM0 6h4v1h-4z"/><path id="g52" d="M3 0h1v1h-1zM2 1h2v1h-2zM1 2h1v1h-1zM3 2h1v1h-1zM0 3h1v1h-1zM3 3h1v1h-1zM0 4h5v1h-5zM3 5h1v1h-1zM3 6h1v1h-1z"/><path id="g54" d="M2 0h2v1h-2zM1 1h1v1h-1zM0 2h1v1h-1zM0 3h4v1h-4zM0 4h1v1h-1zM4 4h1v1h-1zM0 5h1v1h-1zM4 5h1v1h-1zM1 6h3v1h-3z"/><path id="g57" d="M1 0h3v1h-3zM0 1h1v1h-1zM4 1h1v1h-1zM0 2h1v1h-1zM4 2h1v1h-1zM1 3h4v1h-4zM4 4h1v1h-1zM3 5h1v1h-1zM1 6h2v1h-2z"/><path id="g65" d="M1 0h3v1h-3zM0 1h1v1h-1zM4 1h1v1h-1zM0 2h1v1h-1zM4 2h1v1h-1zM0 3h5v1h-5zM0 4h1v1h-1zM4 4h1v1h-1zM0 5h1v1h-1zM4 5h1v1h-1zM0 6h1v1h-1zM4 6h1v1h-1z"/><path id="g66" d="M0 0h4v1h-4zM0 1h1v1h-1zM4 1h1v1h-1zM0 2h1v1h-1zM4 2h1v1h-1zM0 3h4v1h-4zM0 4h1v1h-1zM4 4h1v1h-1zM0 5h1v1h-1zM4 5h1v1h-1zM0 6h4v1h-4z"/><path id="g67" d="M1 0h3v1h-3zM0 1h1v1h-1zM4 1h1v1h-1zM0 2h1v1h-1zM0 3h1v1h-1zM0 4h1v1h-1zM0 5h1v1h-1zM4 5h1v1h-1zM1 6h3v1h-3z"/><path id="g68" d="M0 0h4v1h-4zM0 1h1v1h-1zM4 1h1v1h-1zM0 2h1v1h-1zM4 2h1v1h-1zM0 3h1v1h-1zM4 3h1v1h-1zM0 4h1v1h-1zM4 4h1v1h-1zM0 5h1v1h-1zM4 5h1v1h-1zM0 6h4v1h-4z"/><path id="g69" d="M0 0h5v1h-5zM0 1h1v1h-1zM0 2h1v1h-1zM0 3h4v1h-4zM0 4h1v1h-1zM0 5h1v1h-1zM0 6h5v1h-5z"/><path id="g70" d="M0 0h5v1h-5zM0 1h1v1h-1zM0 2h1v1h-1zM0 3h4v1h-4zM0 4h1v1h-1zM0 5h1v1h-1zM0 6h1v1h-1z"/><path id="g71" d="M1 0h3v1h-3zM0 1h1v1h-1zM4 1h1v1h-1zM0 2h1v1h-1zM0 3h1v1h-1zM2 3h3v1h-3zM0 4h1v1h-1zM4 4h1v1h-1zM0 5h1v1h-1zM4 5h1v1h-1zM1 6h4v1h-4z"/><path id="g72" d="M0 0h1v1h-1zM4 0h1v1h-1zM0 1h1v1h-1zM4 1h1v1h-1zM0 2h1v1h-1zM4 2h1v1h-1zM0 3h5v1h-5zM0 4h1v1h-1zM4 4h1v1h-1zM0 5h1v1h-1zM4 5h1v1h-1zM0 6h1v1h-1zM4 6h1v1h-1z"/><path id="g73" d="M1 0h3v1h-3zM2 1h1v1h-1zM2 2h1v1h-1zM2 3h1v1h-1zM2 4h1v1h-1zM2 5h1v1h-1zM1 6h3v1h-3z"/><path id="g74" d="M2 0h3v1h-3zM3 1h1v1h-1zM3 2h1v1h-1zM3 3h1v1h-1zM3 4h1v1h-1zM0 5h1v1h-1zM3 5h1v1h-1zM1 6h2v1h-2z"/><path id="g75" d="M0 0h1v1h-1zM4 0h1v1h-1zM0 1h1v1h-1zM3 1h1v1h-1zM0 2h1v1h-1zM2 2h1v1h-1zM0 3h2v1h-2zM0 4h1v1h-1zM2 4h1v1h-1zM0 5h1v1h-1zM3 5h1v1h-1zM0 6h1v1h-1zM4 6h1v1h-1z"/><path id="g76" d="M0 0h1v1h-1zM0 1h1v1h-1zM0 2h1v1h-1zM0 3h1v1h-1zM0 4h1v1h-1zM0 5h1v1h-1zM0 6h5v1h-5z"/><path id="g77" d="M0 0h1v1h-1zM4 0h1v1h-1zM0 1h2v1h-2zM3 1h2v1h-2zM0 2h1v1h-1zM2 2h1v1h-1zM4 2h1v1h-1zM0 3h1v1h-1zM2 3h1v1h-1zM4 3h1v1h-1zM0 4h1v1h-1zM4 4h1v1h-1zM0 5h1v1h-1zM4 5h1v1h-1zM0 6h1v1h-1zM4 6h1v1h-1z"/><path id="g78" d="M0 0h1v1h-1zM4 0h1v1h-1zM0 1h1v1h-1zM4 1h1v1h-1zM0 2h2v1h-2zM4 2h1v1h-1zM0 3h1v1h-1zM2 3h1v1h-1zM4 3h1v1h-1zM0 4h1v1h-1zM3 4h2v1h-2zM0 5h1v1h-1zM4 5h1v1h-1zM0 6h1v1h-1zM4 6h1v1h-1z"/><path id="g79" d="M1 0h3v1h-3zM0 1h1v1h-1zM4 1h1v1h-1zM0 2h1v1h-1zM4 2h1v1h-1zM0 3h1v1h-1zM4 3h1v1h-1zM0 4h1v1h-1zM4 4h1v1h-1zM0 5h1v1h-1zM4 5h1v1h-1zM1 6h3v1h-3z"/><path id="g80" d="M0 0h4v1h-4zM0 1h1v1h-1zM4 1h1v1h-1zM0 2h1v1h-1zM4 2h1v1h-1zM0 3h4v1h-4zM0 4h1v1h-1zM0 5h1v1h-1zM0 6h1v1h-1z"/><path id="g81" d="M1 0h3v1h-3zM0 1h1v1h-1zM4 1h1v1h-1zM0 2h1v1h-1zM4 2h1v1h-1zM0 3h1v1h-1zM4 3h1v1h-1zM0 4h1v1h-1zM2 4h1v1h-1zM4 4h1v1h-1zM0 5h1v1h-1zM3 5h1v1h-1zM1 6h2v1h-2zM4 6h1v1h-1z"/><path id="g82" d="M0 0h4v1h-4zM0 1h1v1h-1zM4 1h1v1h-1zM0 2h1v1h-1zM4 2h1v1h-1zM0 3h4v1h-4zM0 4h1v1h-1zM2 4h1v1h-1zM0 5h1v1h-1zM3 5h1v1h-1zM0 6h1v1h-1zM4 6h1v1h-1z"/><path id="g83" d="M1 0h4v1h-4zM0 1h1v1h-1zM0 2h1v1h-1zM1 3h3v1h-3zM4 4h1v1h-1zM4 5h1v1h-1zM0 6h4v1h-4z"/><path id="g84" d="M0 0h5v1h-5zM2 1h1v1h-1zM2 2h1v1h-1zM2 3h1v1h-1zM2 4h1v1h-1zM2 5h1v1h-1zM2 6h1v1h-1z"/><path id="g85" d="M0 0h1v1h-1zM4 0h1v1h-1zM0 1h1v1h-1zM4 1h1v1h-1zM0 2h1v1h-1zM4 2h1v1h-1zM0 3h1v1h-1zM4 3h1v1h-1zM0 4h1v1h-1zM4 4h1v1h-1zM0 5h1v1h-1zM4 5h1v1h-1zM1 6h3v1h-3z"/><path id="g86" d="M0 0h1v1h-1zM4 0h1v1h-1zM0 1h1v1h-1zM4 1h1v1h-1zM0 2h1v1h-1zM4 2h1v1h-1zM0 3h1v1h-1zM4 3h1v1h-1zM0 4h1v1h-1zM4 4h1v1h-1zM1 5h1v1h-1zM3 5h1v1h-1zM2 6h1v1h-1z"/><path id="g87" d="M0 0h1v1h-1zM4 0h1v1h-1zM0 1h1v1h-1zM4 1h1v1h-1zM0 2h1v1h-1zM4 2h1v1h-1zM0 3h1v1h-1zM2 3h1v1h-1zM4 3h1v1h-1zM0 4h1v1h-1zM2 4h1v1h-1zM4 4h1v1h-1zM0 5h1v1h-1zM2 5h1v1h-1zM4 5h1v1h-1zM1 6h1v1h-1zM3 6h1v1h-1z"/><path id="g88" d="M0 0h1v1h-1zM4 0h1v1h-1zM0 1h1v1h-1zM4 1h1v1h-1zM1 2h1v1h-1zM3 2h1v1h-1zM2 3h1v1h-1zM1 4h1v1h-1zM3 4h1v1h-1zM0 5h1v1h-1zM4 5h1v1h-1zM0 6h1v1h-1zM4 6h1v1h-1z"/><path id="g89" d="M0 0h1v1h-1zM4 0h1v1h-1zM0 1h1v1h-1zM4 1h1v1h-1zM1 2h1v1h-1zM3 2h1v1h-1zM2 3h1v1h-1zM2 4h1v1h-1zM2 5h1v1h-1zM2 6h1v1h-1z"/><path id="g97" d="M1 2h3v1h-3zM4 3h1v1h-1zM1 4h4v1h-4zM0 5h1v1h-1zM4 5h1v1h-1zM1 6h4v1h-4z"/><path id="g98" d="M0 0h1v1h-1zM0 1h1v1h-1zM0 2h4v1h-4zM0 3h1v1h-1zM4 3h1v1h-1zM0 4h1v1h-1zM4 4h1v1h-1zM0 5h1v1h-1zM4 5h1v1h-1zM0 6h4v1h-4z"/><path id="g99" d="M1 2h3v1h-3zM0 3h1v1h-1zM0 4h1v1h-1zM0 5h1v1h-1zM4 5h1v1h-1zM1 6h3v1h-3z"/><path id="g100" d="M4 0h1v1h-1zM4 1h1v1h-1zM1 2h4v1h-4zM0 3h1v1h-1zM4 3h1v1h-1zM0 4h1v1h-1zM4 4h1v1h-1zM0 5h1v1h-1zM4 5h1v1h-1zM1 6h4v1h-4z"/><path id="g101" d="M1 2h3v1h-3zM0 3h1v1h-1zM4 3h1v1h-1zM0 4h5v1h-5zM0 5h1v1h-1zM1 6h3v1h-3z"/><path id="g102" d="M2 0h2v1h-2zM1 1h1v1h-1zM4 1h1v1h-1zM1 2h1v1h-1zM0 3h3v1h-3zM1 4h1v1h-1zM1 5h1v1h-1zM1 6h1v1h-1z"/><path id="g103" d="M1 2h4v1h-4zM0 3h1v1h-1zM4 3h1v1h-1zM0 4h1v1h-1zM4 4h1v1h-1zM0 5h1v1h-1zM4 5h1v1h-1zM1 6h4v1h-4zM4 7h1v1h-1zM1 8h3v1h-3z"/><path id="g104" d="M0 0h1v1h-1zM0 1h1v1h-1zM0 2h1v1h-1zM2 2h2v1h-2zM0 3h2v1h-2zM4 3h1v1h-1zM0 4h1v1h-1zM4 4h1v1h-1zM0 5h1v1h-1zM4 5h1v1h-1zM0 6h1v1h-1zM4 6h1v1h-1z"/><path id="g105" d="M2 0h1v1h-1zM1 2h2v1h-2zM2 3h1v1h-1zM2 4h1v1h-1zM2 5h1v1h-1zM1 6h3v1h-3z"/><path id="g106" d="M3 0h1v1h-1zM2 2h2v1h-2zM3 3h1v1h-1zM3 4h1v1h-1zM3 5h1v1h-1zM3 6h1v1h-1zM0 7h1v1h-1zM3 7h1v1h-1zM1 8h2v1h-2z"/><path id="g107" d="M0 0h1v1h-1zM0 1h1v1h-1zM0 2h1v1h-1zM3 2h1v1h-1zM0 3h1v1h-1zM2 3h1v1h-1zM0 4h2v1h-2zM0 5h1v1h-1zM2 5h1v1h-1zM0 6h1v1h-1zM3 6h1v1h-1z"/><path id="g108" d="M1 0h2v1h-2zM2 1h1v1h-1zM2 2h1v1h-1zM2 3h1v1h-1zM2 4h1v1h-1zM2 5h1v1h-1zM1 6h3v1h-3z"/><path id="g109" d="M0 2h2v1h-2zM3 2h1v1h-1zM0 3h1v1h-1zM2 3h1v1h-1zM4 3h1v1h-1zM0 4h1v1h-1zM2 4h1v1h-1zM4 4h1v1h-1zM0 5h1v1h-1zM4 5h1v1h-1zM0 6h1v1h-1zM4 6h1v1h-1z"/><path id="g110" d="M0 2h1v1h-1zM2 2h2v1h-2zM0 3h2v1h-2zM4 3h1v1h-1zM0 4h1v1h-1zM4 4h1v1h-1zM0 5h1v1h-1zM4 5h1v1h-1zM0 6h1v1h-1zM4 6h1v1h-1z"/><path id="g111" d="M1 2h3v1h-3zM0 3h1v1h-1zM4 3h1v1h-1zM0 4h1v1h-1zM4 4h1v1h-1zM0 5h1v1h-1zM4 5h1v1h-1zM1 6h3v1h-3z"/><path id="g112" d="M0 2h4v1h-4zM0 3h1v1h-1zM4 3h1v1h-1zM0 4h1v1h-1zM4 4h1v1h-1zM0 5h1v1h-1zM4 5h1v1h-1zM0 6h4v1h-4zM0 7h1v1h-1zM0 8h1v1h-1z"/><path id="g114" d="M0 2h1v1h-1zM2 2h2v1h-2zM0 3h2v1h-2zM4 3h1v1h-1zM0 4h1v1h-1zM0 5h1v1h-1zM0 6h1v1h-1z"/><path id="g115" d="M1 2h4v1h-4zM0 3h1v1h-1zM1 4h3v1h-3zM4 5h1v1h-1zM0 6h4v1h-4z"/><path id="g116" d="M1 0h1v1h-1zM1 1h1v1h-1zM0 2h3v1h-3zM1 3h1v1h-1zM1 4h1v1h-1zM1 5h1v1h-1zM4 5h1v1h-1zM2 6h2v1h-2z"/><path id="g117" d="M0 2h1v1h-1zM4 2h1v1h-1zM0 3h1v1h-1zM4 3h1v1h-1zM0 4h1v1h-1zM4 4h1v1h-1zM0 5h1v1h-1zM3 5h2v1h-2zM1 6h2v1h-2zM4 6h1v1h-1z"/><path id="g118" d="M0 2h1v1h-1zM4 2h1v1h-1zM0 3h1v1h-1zM4 3h1v1h-1zM0 4h1v1h-1zM4 4h1v1h-1zM1 5h1v1h-1zM3 5h1v1h-1zM2 6h1v1h-1z"/><path id="g119" d="M0 2h1v1h-1zM4 2h1v1h-1zM0 3h1v1h-1zM4 3h1v1h-1zM0 4h1v1h-1zM2 4h1v1h-1zM4 4h1v1h-1zM0 5h1v1h-1zM2 5h1v1h-1zM4 5h1v1h-1zM1 6h1v1h-1zM3 6h1v1h-1z"/><path id="g120" d="M0 2h1v1h-1zM4 2h1v1h-1zM1 3h1v1h-1zM3 3h1v1h-1zM2 4h1v1h-1zM1 5h1v1h-1zM3 5h1v1h-1zM0 6h1v1h-1zM4 6h1v1h-1z"/><path id="g121" d="M0 2h1v1h-1zM4 2h1v1h-1zM0 3h1v1h-1zM4 3h1v1h-1zM0 4h1v1h-1zM4 4h1v1h-1zM0 5h1v1h-1zM4 5h1v1h-1zM1 6h4v1h-4zM4 7h1v1h-1zM1 8h3v1h-3z"/><path id="g122" d="M0 2h5v1h-5zM3 3h1v1h-1zM2 4h1v1h-1zM1 5h1v1h-1zM0 6h5v1h-5z"/><path id="g183" d="M2 3h1v1h-1z"/><path id="g8226" d="M1 2h3v1h-3zM1 3h3v1h-3zM1 4h3v1h-3z"/><linearGradient id="shine" x1="0" y1="0" x2="1" y2="0"><stop offset="0" stop-color="#fff" stop-opacity="0"/><stop offset=".5" stop-color="#fff" stop-opacity=".05"/><stop offset="1" stop-color="#fff" stop-opacity="0"/></linearGradient></defs><g shape-rendering="crispEdges"><path fill="#000000" d="M8 6h846v2h2v585h-2v2h-846v-2h-2v-585h2z"/><path fill="#30405f" d="M4 2h846v2h2v585h-2v2h-846v-2h-2v-585h2z"/><path fill="#0f1629" d="M6 4h842v2h2v581h-2v2h-842v-2h-2v-581h2z"/><g fill="#fff1e8" transform="translate(30 26) scale(3)"><use href="#g52" x="0"/><use href="#g87" x="12"/><use href="#g65" x="18"/><use href="#g89" x="24"/><use href="#g84" x="36"/><use href="#g69" x="42"/><use href="#g67" x="48"/><use href="#g72" x="54"/><use href="#g78" x="60"/><use href="#g79" x="66"/><use href="#g76" x="72"/><use href="#g79" x="78"/><use href="#g71" x="84"/><use href="#g73" x="90"/><use href="#g69" x="96"/><use href="#g83" x="102"/></g><g fill="#7ee787" transform="translate(658 30) scale(2)"><use href="#g65" x="0"/><use href="#g85" x="6"/><use href="#g71" x="12"/><use href="#g50" x="24"/><use href="#g48" x="30"/><use href="#g50" x="36"/><use href="#g52" x="42"/><use href="#g45" x="54"/><use href="#g78" x="66"/><use href="#g79" x="72"/><use href="#g87" x="78"/></g><g fill="#9aa3c7" transform="translate(30 63) scale(2)"><use href="#g83" x="0"/><use href="#g111" x="6"/><use href="#g102" x="12"/><use href="#g116" x="18"/><use href="#g119" x="24"/><use href="#g97" x="30"/><use href="#g114" x="36"/><use href="#g101" x="42"/><use href="#g68" x="54"/><use href="#g101" x="60"/><use href="#g118" x="66"/><use href="#g101" x="72"/><use href="#g108" x="78"/><use href="#g111" x="84"/><use href="#g112" x="90"/><use href="#g101" x="96"/><use href="#g114" x="102"/><use href="#g183" x="114"/><use href="#g68" x="126"/><use href="#g101" x="132"/><use href="#g108" x="138"/><use href="#g104" x="144"/><use href="#g105" x="150"/><use href="#g44" x="156"/><use href="#g73" x="168"/><use href="#g110" x="174"/><use href="#g100" x="180"/><use href="#g105" x="186"/><use href="#g97" x="192"/></g><rect x="30" y="93" width="794" height="2" fill="#30405f"/><rect x="447" y="112" width="186" height="24" fill="#000"/><rect x="444" y="109" width="186" height="24" fill="#1d2b53"/><rect x="444" y="109" width="186" height="2" fill="#2f4380"/><g fill="#f3ef7d" transform="translate(454 115) scale(2)"><use href="#g50" x="0"/><use href="#g48" x="6"/><use href="#g77" x="12"/><use href="#g43" x="18"/><use href="#g86" x="30"/><use href="#g73" x="36"/><use href="#g83" x="42"/><use href="#g73" x="48"/><use href="#g84" x="54"/><use href="#g83" x="60"/><use href="#g47" x="66"/><use href="#g77" x="72"/><use href="#g79" x="78"/></g><rect x="641" y="112" width="186" height="24" fill="#000"/><rect x="638" y="109" width="186" height="24" fill="#1d2b53"/><rect x="638" y="109" width="186" height="2" fill="#2f4380"/><g fill="#f3ef7d" transform="translate(648 115) scale(2)"><use href="#g54" x="0"/><use href="#g48" x="6"/><use href="#g48" x="12"/><use href="#g75" x="18"/><use href="#g43" x="24"/><use href="#g73" x="36"/><use href="#g78" x="42"/><use href="#g83" x="48"/><use href="#g84" x="54"/><use href="#g65" x="60"/><use href="#g76" x="66"/><use href="#g76" x="72"/><use href="#g83" x="78"/></g><g fill="#7ee787" transform="translate(30 114) scale(2)"><use href="#g83" x="0"/><use href="#g80" x="6"/><use href="#g73" x="12"/><use href="#g67" x="18"/><use href="#g89" x="24"/><use href="#g67" x="30"/><use href="#g72" x="36"/><use href="#g65" x="42"/><use href="#g84" x="48"/><use href="#g65" x="60"/><use href="#g73" x="66"/><use href="#g38" x="78"/><use href="#g80" x="90"/><use href="#g73" x="96"/><use href="#g88" x="102"/><use href="#g69" x="108"/><use href="#g76" x="114"/><use href="#g67" x="120"/><use href="#g72" x="126"/><use href="#g65" x="132"/><use href="#g84" x="138"/><use href="#g65" x="150"/><use href="#g73" x="156"/></g><g fill="#9aa3c7" transform="translate(30 145) scale(2)"><use href="#g65" x="0"/><use href="#g73" x="6"/><use href="#g99" x="18"/><use href="#g104" x="24"/><use href="#g97" x="30"/><use href="#g114" x="36"/><use href="#g97" x="42"/><use href="#g99" x="48"/><use href="#g116" x="54"/><use href="#g101" x="60"/><use href="#g114" x="66"/><use href="#g99" x="78"/><use href="#g104" x="84"/><use href="#g97" x="90"/><use href="#g116" x="96"/><use href="#g112" x="108"/><use href="#g108" x="114"/><use href="#g97" x="120"/><use href="#g116" x="126"/><use href="#g102" x="132"/><use href="#g111" x="138"/><use href="#g114" x="144"/><use href="#g109" x="150"/><use href="#g115" x="156"/><use href="#g44" x="162"/><use href="#g98" x="174"/><use href="#g117" x="180"/><use href="#g105" x="186"/><use href="#g108" x="192"/><use href="#g116" x="198"/><use href="#g102" x="210"/><use href="#g111" x="216"/><use href="#g114" x="222"/><use href="#g78" x="234"/><use href="#g101" x="240"/><use href="#g120" x="246"/><use href="#g116" x="252"/><use href="#g68" x="258"/><use href="#g97" x="264"/><use href="#g121" x="270"/><use href="#g65" x="282"/><use href="#g73" x="288"/></g><g fill="#7ee787" transform="translate(34 179) scale(2)"><use href="#g8226" x="0"/></g><g fill="#fff1e8" transform="translate(58 179) scale(2)"><use href="#g66" x="0"/><use href="#g97" x="6"/><use href="#g99" x="12"/><use href="#g107" x="18"/><use href="#g101" x="24"/><use href="#g110" x="30"/><use href="#g100" x="36"/><use href="#g97" x="48"/><use href="#g110" x="54"/><use href="#g100" x="60"/><use href="#g102" x="72"/><use href="#g114" x="78"/><use href="#g111" x="84"/><use href="#g110" x="90"/><use href="#g116" x="96"/><use href="#g101" x="102"/><use href="#g110" x="108"/><use href="#g100" x="114"/><use href="#g44" x="120"/><use href="#g101" x="132"/><use href="#g110" x="138"/><use href="#g100" x="144"/><use href="#g116" x="156"/><use href="#g111" x="162"/><use href="#g101" x="174"/><use href="#g110" x="180"/><use href="#g100" x="186"/><use href="#g44" x="192"/><use href="#g111" x="204"/><use href="#g110" x="210"/><use href="#g119" x="222"/><use href="#g101" x="228"/><use href="#g98" x="234"/><use href="#g44" x="240"/><use href="#g105" x="252"/><use href="#g79" x="258"/><use href="#g83" x="264"/><use href="#g97" x="276"/><use href="#g110" x="282"/><use href="#g100" x="288"/><use href="#g65" x="300"/><use href="#g110" x="306"/><use href="#g100" x="312"/><use href="#g114" x="318"/><use href="#g111" x="324"/><use href="#g105" x="330"/><use href="#g100" x="336"/></g><g fill="#7ee787" transform="translate(34 207) scale(2)"><use href="#g8226" x="0"/></g><g fill="#fff1e8" transform="translate(58 207) scale(2)"><use href="#g83" x="0"/><use href="#g101" x="6"/><use href="#g114" x="12"/><use href="#g118" x="18"/><use href="#g101" x="24"/><use href="#g114" x="30"/><use href="#g108" x="36"/><use href="#g101" x="42"/><use href="#g115" x="48"/><use href="#g115" x="54"/><use href="#g109" x="66"/><use href="#g105" x="72"/><use href="#g99" x="78"/><use href="#g114" x="84"/><use href="#g111" x="90"/><use href="#g115" x="96"/><use href="#g101" x="102"/><use href="#g114" x="108"/><use href="#g118" x="114"/><use href="#g105" x="120"/><use href="#g99" x="126"/><use href="#g101" x="132"/><use href="#g115" x="138"/><use href="#g111" x="150"/><use href="#g110" x="156"/><use href="#g65" x="168"/><use href="#g87" x="174"/><use href="#g83" x="180"/><use href="#g76" x="192"/><use href="#g97" x="198"/><use href="#g109" x="204"/><use href="#g98" x="210"/><use href="#g100" x="216"/><use href="#g97" x="222"/><use href="#g44" x="228"/><use href="#g65" x="240"/><use href="#g80" x="246"/><use href="#g73" x="252"/><use href="#g71" x="264"/><use href="#g97" x="270"/><use href="#g116" x="276"/><use href="#g101" x="282"/><use href="#g119" x="288"/><use href="#g97" x="294"/><use href="#g121" x="300"/><use href="#g97" x="312"/><use href="#g110" x="318"/><use href="#g100" x="324"/><use href="#g68" x="336"/><use href="#g121" x="342"/><use href="#g110" x="348"/><use href="#g97" x="354"/><use href="#g109" x="360"/><use href="#g111" x="366"/><use href="#g68" x="372"/><use href="#g66" x="378"/></g><g fill="#7ee787" transform="translate(34 235) scale(2)"><use href="#g8226" x="0"/></g><g fill="#fff1e8" transform="translate(58 235) scale(2)"><use href="#g69" x="0"/><use href="#g118" x="6"/><use href="#g101" x="12"/><use href="#g110" x="18"/><use href="#g116" x="24"/><use href="#g45" x="30"/><use href="#g100" x="36"/><use href="#g114" x="42"/><use href="#g105" x="48"/><use href="#g118" x="54"/><use href="#g101" x="60"/><use href="#g110" x="66"/><use href="#g106" x="78"/><use href="#g111" x="84"/><use href="#g98" x="90"/><use href="#g115" x="96"/><use href="#g111" x="108"/><use href="#g110" x="114"/><use href="#g69" x="126"/><use href="#g118" x="132"/><use href="#g101" x="138"/><use href="#g110" x="144"/><use href="#g116" x="150"/><use href="#g66" x="156"/><use href="#g114" x="162"/><use href="#g105" x="168"/><use href="#g100" x="174"/><use href="#g103" x="180"/><use href="#g101" x="186"/><use href="#g44" x="192"/><use href="#g83" x="204"/><use href="#g81" x="210"/><use href="#g83" x="216"/><use href="#g97" x="228"/><use href="#g110" x="234"/><use href="#g100" x="240"/><use href="#g83" x="252"/><use href="#g116" x="258"/><use href="#g101" x="264"/><use href="#g112" x="270"/><use href="#g70" x="282"/><use href="#g117" x="288"/><use href="#g110" x="294"/><use href="#g99" x="300"/><use href="#g116" x="306"/><use href="#g105" x="312"/><use href="#g111" x="318"/><use href="#g110" x="324"/><use href="#g115" x="330"/></g><g fill="#7ee787" transform="translate(34 263) scale(2)"><use href="#g8226" x="0"/></g><g fill="#fff1e8" transform="translate(58 263) scale(2)"><use href="#g67" x="0"/><use href="#g111" x="6"/><use href="#g110" x="12"/><use href="#g116" x="18"/><use href="#g101" x="24"/><use href="#g110" x="30"/><use href="#g116" x="36"/><use href="#g109" x="48"/><use href="#g111" x="54"/><use href="#g100" x="60"/><use href="#g101" x="66"/><use href="#g114" x="72"/><use href="#g97" x="78"/><use href="#g116" x="84"/><use href="#g105" x="90"/><use href="#g111" x="96"/><use href="#g110" x="102"/><use href="#g97" x="114"/><use href="#g110" x="120"/><use href="#g100" x="126"/><use href="#g112" x="138"/><use href="#g97" x="144"/><use href="#g121" x="150"/><use href="#g109" x="156"/><use href="#g101" x="162"/><use href="#g110" x="168"/><use href="#g116" x="174"/><use href="#g115" x="180"/><use href="#g102" x="192"/><use href="#g101" x="198"/><use href="#g97" x="204"/><use href="#g116" x="210"/><use href="#g117" x="216"/><use href="#g114" x="222"/><use href="#g101" x="228"/><use href="#g115" x="234"/><use href="#g102" x="246"/><use href="#g111" x="252"/><use href="#g114" x="258"/><use href="#g83" x="270"/><use href="#g112" x="276"/><use href="#g105" x="282"/><use href="#g99" x="288"/><use href="#g121" x="294"/><use href="#g67" x="300"/><use href="#g104" x="306"/><use href="#g97" x="312"/><use href="#g116" x="318"/></g><g fill="#7ee787" transform="translate(34 291) scale(2)"><use href="#g8226" x="0"/></g><g fill="#fff1e8" transform="translate(58 291) scale(2)"><use href="#g76" x="0"/><use href="#g111" x="6"/><use href="#g99" x="12"/><use href="#g97" x="18"/><use href="#g108" x="24"/><use href="#g105" x="30"/><use href="#g122" x="36"/><use href="#g97" x="42"/><use href="#g116" x="48"/><use href="#g105" x="54"/><use href="#g111" x="60"/><use href="#g110" x="66"/><use href="#g105" x="78"/><use href="#g110" x="84"/><use href="#g57" x="96"/><use href="#g108" x="108"/><use href="#g97" x="114"/><use href="#g110" x="120"/><use href="#g103" x="126"/><use href="#g117" x="132"/><use href="#g97" x="138"/><use href="#g103" x="144"/><use href="#g101" x="150"/><use href="#g115" x="156"/><use href="#g44" x="162"/><use href="#g99" x="174"/><use href="#g97" x="180"/><use href="#g99" x="186"/><use href="#g104" x="192"/><use href="#g101" x="198"/><use href="#g100" x="204"/><use href="#g111" x="216"/><use href="#g110" x="222"/><use href="#g67" x="234"/><use href="#g108" x="240"/><use href="#g111" x="246"/><use href="#g117" x="252"/><use href="#g100" x="258"/><use href="#g102" x="264"/><use href="#g108" x="270"/><use href="#g97" x="276"/><use href="#g114" x="282"/><use href="#g101" x="288"/><use href="#g39" x="294"/><use href="#g115" x="300"/><use href="#g67" x="312"/><use href="#g68" x="318"/><use href="#g78" x="324"/></g><g fill="#7ee787" transform="translate(34 319) scale(2)"><use href="#g8226" x="0"/></g><g fill="#fff1e8" transform="translate(58 319) scale(2)"><use href="#g80" x="0"/><use href="#g114" x="6"/><use href="#g101" x="12"/><use href="#g109" x="18"/><use href="#g105" x="24"/><use href="#g117" x="30"/><use href="#g109" x="36"/><use href="#g99" x="48"/><use href="#g111" x="54"/><use href="#g110" x="60"/><use href="#g116" x="66"/><use href="#g101" x="72"/><use href="#g110" x="78"/><use href="#g116" x="84"/><use href="#g118" x="96"/><use href="#g105" x="102"/><use href="#g97" x="108"/><use href="#g67" x="120"/><use href="#g111" x="126"/><use href="#g110" x="132"/><use href="#g116" x="138"/><use href="#g101" x="144"/><use href="#g110" x="150"/><use href="#g116" x="156"/><use href="#g102" x="162"/><use href="#g117" x="168"/><use href="#g108" x="174"/><use href="#g43" x="186"/><use href="#g71" x="198"/><use href="#g114" x="204"/><use href="#g97" x="210"/><use href="#g112" x="216"/><use href="#g104" x="222"/><use href="#g81" x="228"/><use href="#g76" x="234"/><use href="#g44" x="240"/><use href="#g110" x="252"/><use href="#g111" x="258"/><use href="#g97" x="270"/><use href="#g112" x="276"/><use href="#g112" x="282"/><use href="#g114" x="294"/><use href="#g101" x="300"/><use href="#g108" x="306"/><use href="#g101" x="312"/><use href="#g97" x="318"/><use href="#g115" x="324"/><use href="#g101" x="330"/></g><rect x="30" y="359" width="794" height="2" fill="#30405f"/><rect x="653" y="378" width="174" height="24" fill="#000"/><rect x="650" y="375" width="174" height="24" fill="#1d2b53"/><rect x="650" y="375" width="174" height="2" fill="#2f4380"/><g fill="#f3ef7d" transform="translate(660 381) scale(2)"><use href="#g73" x="0"/><use href="#g79" x="6"/><use href="#g83" x="12"/><use href="#g43" x="24"/><use href="#g65" x="36"/><use href="#g78" x="42"/><use href="#g68" x="48"/><use href="#g82" x="54"/><use href="#g79" x="60"/><use href="#g73" x="66"/><use href="#g68" x="72"/></g><g fill="#7ee787" transform="translate(30 380) scale(2)"><use href="#g67" x="0"/><use href="#g72" x="6"/><use href="#g65" x="12"/><use href="#g84" x="18"/><use href="#g82" x="24"/><use href="#g69" x="30"/><use href="#g65" x="36"/><use href="#g76" x="42"/><use href="#g65" x="54"/><use href="#g73" x="60"/></g><g fill="#9aa3c7" transform="translate(30 411) scale(2)"><use href="#g73" x="0"/><use href="#g110" x="6"/><use href="#g45" x="12"/><use href="#g104" x="18"/><use href="#g111" x="24"/><use href="#g117" x="30"/><use href="#g115" x="36"/><use href="#g101" x="42"/><use href="#g65" x="54"/><use href="#g73" x="60"/><use href="#g99" x="72"/><use href="#g111" x="78"/><use href="#g109" x="84"/><use href="#g112" x="90"/><use href="#g97" x="96"/><use href="#g110" x="102"/><use href="#g105" x="108"/><use href="#g111" x="114"/><use href="#g110" x="120"/><use href="#g97" x="132"/><use href="#g112" x="138"/><use href="#g112" x="144"/><use href="#g119" x="156"/><use href="#g105" x="162"/><use href="#g116" x="168"/><use href="#g104" x="174"/><use href="#g51" x="186"/><use href="#g68" x="192"/><use href="#g99" x="204"/><use href="#g104" x="210"/><use href="#g97" x="216"/><use href="#g114" x="222"/><use href="#g97" x="228"/><use href="#g99" x="234"/><use href="#g116" x="240"/><use href="#g101" x="246"/><use href="#g114" x="252"/><use href="#g115" x="258"/></g><g fill="#7ee787" transform="translate(34 445) scale(2)"><use href="#g8226" x="0"/></g><g fill="#fff1e8" transform="translate(58 445) scale(2)"><use href="#g73" x="0"/><use href="#g110" x="6"/><use href="#g45" x="12"/><use href="#g97" x="18"/><use href="#g112" x="24"/><use href="#g112" x="30"/><use href="#g112" x="42"/><use href="#g117" x="48"/><use href="#g114" x="54"/><use href="#g99" x="60"/><use href="#g104" x="66"/><use href="#g97" x="72"/><use href="#g115" x="78"/><use href="#g101" x="84"/><use href="#g115" x="90"/><use href="#g97" x="102"/><use href="#g110" x="108"/><use href="#g100" x="114"/><use href="#g115" x="126"/><use href="#g117" x="132"/><use href="#g98" x="138"/><use href="#g115" x="144"/><use href="#g99" x="150"/><use href="#g114" x="156"/><use href="#g105" x="162"/><use href="#g112" x="168"/><use href="#g116" x="174"/><use href="#g105" x="180"/><use href="#g111" x="186"/><use href="#g110" x="192"/><use href="#g115" x="198"/><use href="#g44" x="204"/><use href="#g118" x="216"/><use href="#g101" x="222"/><use href="#g114" x="228"/><use href="#g105" x="234"/><use href="#g102" x="240"/><use href="#g105" x="246"/><use href="#g101" x="252"/><use href="#g100" x="258"/><use href="#g115" x="270"/><use href="#g101" x="276"/><use href="#g114" x="282"/><use href="#g118" x="288"/><use href="#g101" x="294"/><use href="#g114" x="300"/><use href="#g45" x="306"/><use href="#g115" x="312"/><use href="#g105" x="318"/><use href="#g100" x="324"/><use href="#g101" x="330"/></g><g fill="#7ee787" transform="translate(34 473) scale(2)"><use href="#g8226" x="0"/></g><g fill="#fff1e8" transform="translate(58 473) scale(2)"><use href="#g82" x="0"/><use href="#g101" x="6"/><use href="#g97" x="12"/><use href="#g108" x="18"/><use href="#g45" x="24"/><use href="#g116" x="30"/><use href="#g105" x="36"/><use href="#g109" x="42"/><use href="#g101" x="48"/><use href="#g114" x="60"/><use href="#g101" x="66"/><use href="#g110" x="72"/><use href="#g101" x="78"/><use href="#g119" x="84"/><use href="#g97" x="90"/><use href="#g108" x="96"/><use href="#g115" x="102"/><use href="#g97" x="114"/><use href="#g110" x="120"/><use href="#g100" x="126"/><use href="#g99" x="138"/><use href="#g97" x="144"/><use href="#g110" x="150"/><use href="#g99" x="156"/><use href="#g101" x="162"/><use href="#g108" x="168"/><use href="#g108" x="174"/><use href="#g97" x="180"/><use href="#g116" x="186"/><use href="#g105" x="192"/><use href="#g111" x="198"/><use href="#g110" x="204"/><use href="#g115" x="210"/><use href="#g118" x="222"/><use href="#g105" x="228"/><use href="#g97" x="234"/><use href="#g71" x="246"/><use href="#g111" x="252"/><use href="#g111" x="258"/><use href="#g103" x="264"/><use href="#g108" x="270"/><use href="#g101" x="276"/><use href="#g67" x="288"/><use href="#g108" x="294"/><use href="#g111" x="300"/><use href="#g117" x="306"/><use href="#g100" x="312"/><use href="#g80" x="324"/><use href="#g117" x="330"/><use href="#g98" x="336"/><use href="#g47" x="342"/><use href="#g83" x="348"/><use href="#g117" x="354"/><use href="#g98" x="360"/></g><g fill="#7ee787" transform="translate(34 501) scale(2)"><use href="#g8226" x="0"/></g><g fill="#fff1e8" transform="translate(58 501) scale(2)"><use href="#g78" x="0"/><use href="#g101" x="6"/><use href="#g115" x="12"/><use href="#g116" x="18"/><use href="#g74" x="24"/><use href="#g83" x="30"/><use href="#g65" x="42"/><use href="#g80" x="48"/><use href="#g73" x="54"/><use href="#g115" x="60"/><use href="#g119" x="72"/><use href="#g105" x="78"/><use href="#g116" x="84"/><use href="#g104" x="90"/><use href="#g114" x="102"/><use href="#g97" x="108"/><use href="#g116" x="114"/><use href="#g101" x="120"/><use href="#g108" x="132"/><use href="#g105" x="138"/><use href="#g109" x="144"/><use href="#g105" x="150"/><use href="#g116" x="156"/><use href="#g115" x="162"/><use href="#g111" x="174"/><use href="#g110" x="180"/><use href="#g99" x="192"/><use href="#g104" x="198"/><use href="#g97" x="204"/><use href="#g116" x="210"/><use href="#g97" x="222"/><use href="#g110" x="228"/><use href="#g100" x="234"/><use href="#g76" x="246"/><use href="#g76" x="252"/><use href="#g77" x="258"/><use href="#g101" x="270"/><use href="#g110" x="276"/><use href="#g100" x="282"/><use href="#g112" x="288"/><use href="#g111" x="294"/><use href="#g105" x="300"/><use href="#g110" x="306"/><use href="#g116" x="312"/><use href="#g115" x="318"/></g><rect x="30" y="541" width="794" height="2" fill="#30405f"/><g fill="#9aa3c7" transform="translate(30 561) scale(2)"><use href="#g80" x="0"/><use href="#g114" x="6"/><use href="#g105" x="12"/><use href="#g118" x="18"/><use href="#g97" x="24"/><use href="#g116" x="30"/><use href="#g101" x="36"/><use href="#g99" x="48"/><use href="#g108" x="54"/><use href="#g105" x="60"/><use href="#g101" x="66"/><use href="#g110" x="72"/><use href="#g116" x="78"/><use href="#g99" x="90"/><use href="#g111" x="96"/><use href="#g100" x="102"/><use href="#g101" x="108"/><use href="#g44" x="114"/><use href="#g98" x="126"/><use href="#g117" x="132"/><use href="#g116" x="138"/><use href="#g104" x="150"/><use href="#g97" x="156"/><use href="#g112" x="162"/><use href="#g112" x="168"/><use href="#g121" x="174"/><use href="#g116" x="186"/><use href="#g111" x="192"/><use href="#g119" x="204"/><use href="#g97" x="210"/><use href="#g108" x="216"/><use href="#g107" x="222"/><use href="#g121" x="234"/><use href="#g111" x="240"/><use href="#g117" x="246"/><use href="#g116" x="258"/><use href="#g104" x="264"/><use href="#g114" x="270"/><use href="#g111" x="276"/><use href="#g117" x="282"/><use href="#g103" x="288"/><use href="#g104" x="294"/><use href="#g116" x="306"/><use href="#g104" x="312"/><use href="#g101" x="318"/><use href="#g100" x="330"/><use href="#g101" x="336"/><use href="#g115" x="342"/><use href="#g105" x="348"/><use href="#g103" x="354"/><use href="#g110" x="360"/><use href="#g46" x="366"/></g><rect x="-120" y="6" width="90" height="581" fill="url(#shine)"><animate attributeName="x" values="-120;-120;860;860" keyTimes="0;.62;.9;1" dur="13s" repeatCount="indefinite"/></rect></g></svg>
