<svg xmlns="http://www.w3.org/2000/svg" width="860" height="196" viewBox="0 0 860 196" role="img" aria-labelledby="t"><title id="t">Hey, I&#x27;m Mohit. Full-Stack Software Developer. building AI chat apps with 20M+ visits a month · serverless, event-driven backends on AWS · LLM endpoints, LangChain agents, vector search · in-app payments on iOS and Android · 2+ years shipping to production</title><defs><path id="g39" d="M2 0h1v1h-1zM2 1h1v1h-1zM1 2h1v1h-1z"/><path id="g43" d="M2 1h1v1h-1zM2 2h1v1h-1zM0 3h5v1h-5zM2 4h1v1h-1zM2 5h1v1h-1z"/><path id="g44" d="M1 5h2v1h-2zM2 6h1v1h-1zM1 7h1v1h-1z"/><path id="g45" d="M0 3h5v1h-5z"/><path id="g48" d="M1 0h3v1h-3zM0 1h1v1h-1zM4 1h1v1h-1zM0 2h1v1h-1zM3 2h2v1h-2zM0 3h1v1h-1zM2 3h1v1h-1zM4 3h1v1h-1zM0 4h2v1h-2zM4 4h1v1h-1zM0 5h1v1h-1zM4 5h1v1h-1zM1 6h3v1h-3z"/><path id="g50" d="M1 0h3v1h-3zM0 1h1v1h-1zM4 1h1v1h-1zM4 2h1v1h-1zM3 3h1v1h-1zM2 4h1v1h-1zM1 5h1v1h-1zM0 6h5v1h-5z"/><path id="g62" d="M1 0h1v1h-1zM2 1h1v1h-1zM3 2h1v1h-1zM4 3h1v1h-1zM3 4h1v1h-1zM2 5h1v1h-1zM1 6h1v1h-1z"/><path id="g65" d="M1 0h3v1h-3zM0 1h1v1h-1zM4 1h1v1h-1zM0 2h1v1h-1zM4 2h1v1h-1zM0 3h5v1h-5zM0 4h1v1h-1zM4 4h1v1h-1zM0 5h1v1h-1zM4 5h1v1h-1zM0 6h1v1h-1zM4 6h1v1h-1z"/><path id="g67" d="M1 0h3v1h-3zM0 1h1v1h-1zM4 1h1v1h-1zM0 2h1v1h-1zM0 3h1v1h-1zM0 4h1v1h-1zM0 5h1v1h-1zM4 5h1v1h-1zM1 6h3v1h-3z"/><path id="g68" d="M0 0h4v1h-4zM0 1h1v1h-1zM4 1h1v1h-1zM0 2h1v1h-1zM4 2h1v1h-1zM0 3h1v1h-1zM4 3h1v1h-1zM0 4h1v1h-1zM4 4h1v1h-1zM0 5h1v1h-1zM4 5h1v1h-1zM0 6h4v1h-4z"/><path id="g69" d="M0 0h5v1h-5zM0 1h1v1h-1zM0 2h1v1h-1zM0 3h4v1h-4zM0 4h1v1h-1zM0 5h1v1h-1zM0 6h5v1h-5z"/><path id="g70" d="M0 0h5v1h-5zM0 1h1v1h-1zM0 2h1v1h-1zM0 3h4v1h-4zM0 4h1v1h-1zM0 5h1v1h-1zM0 6h1v1h-1z"/><path id="g72" d="M0 0h1v1h-1zM4 0h1v1h-1zM0 1h1v1h-1zM4 1h1v1h-1zM0 2h1v1h-1zM4 2h1v1h-1zM0 3h5v1h-5zM0 4h1v1h-1zM4 4h1v1h-1zM0 5h1v1h-1zM4 5h1v1h-1zM0 6h1v1h-1zM4 6h1v1h-1z"/><path id="g73" d="M1 0h3v1h-3zM2 1h1v1h-1zM2 2h1v1h-1zM2 3h1v1h-1zM2 4h1v1h-1zM2 5h1v1h-1zM1 6h3v1h-3z"/><path id="g75" d="M0 0h1v1h-1zM4 0h1v1h-1zM0 1h1v1h-1zM3 1h1v1h-1zM0 2h1v1h-1zM2 2h1v1h-1zM0 3h2v1h-2zM0 4h1v1h-1zM2 4h1v1h-1zM0 5h1v1h-1zM3 5h1v1h-1zM0 6h1v1h-1zM4 6h1v1h-1z"/><path id="g76" d="M0 0h1v1h-1zM0 1h1v1h-1zM0 2h1v1h-1zM0 3h1v1h-1zM0 4h1v1h-1zM0 5h1v1h-1zM0 6h5v1h-5z"/><path id="g77" d="M0 0h1v1h-1zM4 0h1v1h-1zM0 1h2v1h-2zM3 1h2v1h-2zM0 2h1v1h-1zM2 2h1v1h-1zM4 2h1v1h-1zM0 3h1v1h-1zM2 3h1v1h-1zM4 3h1v1h-1zM0 4h1v1h-1zM4 4h1v1h-1zM0 5h1v1h-1zM4 5h1v1h-1zM0 6h1v1h-1zM4 6h1v1h-1z"/><path id="g79" d="M1 0h3v1h-3zM0 1h1v1h-1zM4 1h1v1h-1zM0 2h1v1h-1zM4 2h1v1h-1zM0 3h1v1h-1zM4 3h1v1h-1zM0 4h1v1h-1zM4 4h1v1h-1zM0 5h1v1h-1zM4 5h1v1h-1zM1 6h3v1h-3z"/><path id="g80" d="M0 0h4v1h-4zM0 1h1v1h-1zM4 1h1v1h-1zM0 2h1v1h-1zM4 2h1v1h-1zM0 3h4v1h-4zM0 4h1v1h-1zM0 5h1v1h-1zM0 6h1v1h-1z"/><path id="g82" d="M0 0h4v1h-4zM0 1h1v1h-1zM4 1h1v1h-1zM0 2h1v1h-1zM4 2h1v1h-1zM0 3h4v1h-4zM0 4h1v1h-1zM2 4h1v1h-1zM0 5h1v1h-1zM3 5h1v1h-1zM0 6h1v1h-1zM4 6h1v1h-1z"/><path id="g83" d="M1 0h4v1h-4zM0 1h1v1h-1zM0 2h1v1h-1zM1 3h3v1h-3zM4 4h1v1h-1zM4 5h1v1h-1zM0 6h4v1h-4z"/><path id="g84" d="M0 0h5v1h-5zM2 1h1v1h-1zM2 2h1v1h-1zM2 3h1v1h-1zM2 4h1v1h-1zM2 5h1v1h-1zM2 6h1v1h-1z"/><path id="g85" d="M0 0h1v1h-1zM4 0h1v1h-1zM0 1h1v1h-1zM4 1h1v1h-1zM0 2h1v1h-1zM4 2h1v1h-1zM0 3h1v1h-1zM4 3h1v1h-1zM0 4h1v1h-1zM4 4h1v1h-1zM0 5h1v1h-1zM4 5h1v1h-1zM1 6h3v1h-3z"/><path id="g86" d="M0 0h1v1h-1zM4 0h1v1h-1zM0 1h1v1h-1zM4 1h1v1h-1zM0 2h1v1h-1zM4 2h1v1h-1zM0 3h1v1h-1zM4 3h1v1h-1zM0 4h1v1h-1zM4 4h1v1h-1zM1 5h1v1h-1zM3 5h1v1h-1zM2 6h1v1h-1z"/><path id="g87" d="M0 0h1v1h-1zM4 0h1v1h-1zM0 1h1v1h-1zM4 1h1v1h-1zM0 2h1v1h-1zM4 2h1v1h-1zM0 3h1v1h-1zM2 3h1v1h-1zM4 3h1v1h-1zM0 4h1v1h-1zM2 4h1v1h-1zM4 4h1v1h-1zM0 5h1v1h-1zM2 5h1v1h-1zM4 5h1v1h-1zM1 6h1v1h-1zM3 6h1v1h-1z"/><path id="g89" d="M0 0h1v1h-1zM4 0h1v1h-1zM0 1h1v1h-1zM4 1h1v1h-1zM1 2h1v1h-1zM3 2h1v1h-1zM2 3h1v1h-1zM2 4h1v1h-1zM2 5h1v1h-1zM2 6h1v1h-1z"/><path id="g97" d="M1 2h3v1h-3zM4 3h1v1h-1zM1 4h4v1h-4zM0 5h1v1h-1zM4 5h1v1h-1zM1 6h4v1h-4z"/><path id="g98" d="M0 0h1v1h-1zM0 1h1v1h-1zM0 2h4v1h-4zM0 3h1v1h-1zM4 3h1v1h-1zM0 4h1v1h-1zM4 4h1v1h-1zM0 5h1v1h-1zM4 5h1v1h-1zM0 6h4v1h-4z"/><path id="g99" d="M1 2h3v1h-3zM0 3h1v1h-1zM0 4h1v1h-1zM0 5h1v1h-1zM4 5h1v1h-1zM1 6h3v1h-3z"/><path id="g100" d="M4 0h1v1h-1zM4 1h1v1h-1zM1 2h4v1h-4zM0 3h1v1h-1zM4 3h1v1h-1zM0 4h1v1h-1zM4 4h1v1h-1zM0 5h1v1h-1zM4 5h1v1h-1zM1 6h4v1h-4z"/><path id="g101" d="M1 2h3v1h-3zM0 3h1v1h-1zM4 3h1v1h-1zM0 4h5v1h-5zM0 5h1v1h-1zM1 6h3v1h-3z"/><path id="g103" d="M1 2h4v1h-4zM0 3h1v1h-1zM4 3h1v1h-1zM0 4h1v1h-1zM4 4h1v1h-1zM0 5h1v1h-1zM4 5h1v1h-1zM1 6h4v1h-4zM4 7h1v1h-1zM1 8h3v1h-3z"/><path id="g104" d="M0 0h1v1h-1zM0 1h1v1h-1zM0 2h1v1h-1zM2 2h2v1h-2zM0 3h2v1h-2zM4 3h1v1h-1zM0 4h1v1h-1zM4 4h1v1h-1zM0 5h1v1h-1zM4 5h1v1h-1zM0 6h1v1h-1zM4 6h1v1h-1z"/><path id="g105" d="M2 0h1v1h-1zM1 2h2v1h-2zM2 3h1v1h-1zM2 4h1v1h-1zM2 5h1v1h-1zM1 6h3v1h-3z"/><path id="g107" d="M0 0h1v1h-1zM0 1h1v1h-1zM0 2h1v1h-1zM3 2h1v1h-1zM0 3h1v1h-1zM2 3h1v1h-1zM0 4h2v1h-2zM0 5h1v1h-1zM2 5h1v1h-1zM0 6h1v1h-1zM3 6h1v1h-1z"/><path id="g108" d="M1 0h2v1h-2zM2 1h1v1h-1zM2 2h1v1h-1zM2 3h1v1h-1zM2 4h1v1h-1zM2 5h1v1h-1zM1 6h3v1h-3z"/><path id="g109" d="M0 2h2v1h-2zM3 2h1v1h-1zM0 3h1v1h-1zM2 3h1v1h-1zM4 3h1v1h-1zM0 4h1v1h-1zM2 4h1v1h-1zM4 4h1v1h-1zM0 5h1v1h-1zM4 5h1v1h-1zM0 6h1v1h-1zM4 6h1v1h-1z"/><path id="g110" d="M0 2h1v1h-1zM2 2h2v1h-2zM0 3h2v1h-2zM4 3h1v1h-1zM0 4h1v1h-1zM4 4h1v1h-1zM0 5h1v1h-1zM4 5h1v1h-1zM0 6h1v1h-1zM4 6h1v1h-1z"/><path id="g111" d="M1 2h3v1h-3zM0 3h1v1h-1zM4 3h1v1h-1zM0 4h1v1h-1zM4 4h1v1h-1zM0 5h1v1h-1zM4 5h1v1h-1zM1 6h3v1h-3z"/><path id="g112" d="M0 2h4v1h-4zM0 3h1v1h-1zM4 3h1v1h-1zM0 4h1v1h-1zM4 4h1v1h-1zM0 5h1v1h-1zM4 5h1v1h-1zM0 6h4v1h-4zM0 7h1v1h-1zM0 8h1v1h-1z"/><path id="g114" d="M0 2h1v1h-1zM2 2h2v1h-2zM0 3h2v1h-2zM4 3h1v1h-1zM0 4h1v1h-1zM0 5h1v1h-1zM0 6h1v1h-1z"/><path id="g115" d="M1 2h4v1h-4zM0 3h1v1h-1zM1 4h3v1h-3zM4 5h1v1h-1zM0 6h4v1h-4z"/><path id="g116" d="M1 0h1v1h-1zM1 1h1v1h-1zM0 2h3v1h-3zM1 3h1v1h-1zM1 4h1v1h-1zM1 5h1v1h-1zM4 5h1v1h-1zM2 6h2v1h-2z"/><path id="g117" d="M0 2h1v1h-1zM4 2h1v1h-1zM0 3h1v1h-1zM4 3h1v1h-1zM0 4h1v1h-1zM4 4h1v1h-1zM0 5h1v1h-1zM3 5h2v1h-2zM1 6h2v1h-2zM4 6h1v1h-1z"/><path id="g118" d="M0 2h1v1h-1zM4 2h1v1h-1zM0 3h1v1h-1zM4 3h1v1h-1zM0 4h1v1h-1zM4 4h1v1h-1zM1 5h1v1h-1zM3 5h1v1h-1zM2 6h1v1h-1z"/><path id="g119" d="M0 2h1v1h-1zM4 2h1v1h-1zM0 3h1v1h-1zM4 3h1v1h-1zM0 4h1v1h-1zM2 4h1v1h-1zM4 4h1v1h-1zM0 5h1v1h-1zM2 5h1v1h-1zM4 5h1v1h-1zM1 6h1v1h-1zM3 6h1v1h-1z"/><path id="g121" d="M0 2h1v1h-1zM4 2h1v1h-1zM0 3h1v1h-1zM4 3h1v1h-1zM0 4h1v1h-1zM4 4h1v1h-1zM0 5h1v1h-1zM4 5h1v1h-1zM1 6h4v1h-4zM4 7h1v1h-1zM1 8h3v1h-3z"/><linearGradient id="shine" x1="0" y1="0" x2="1" y2="0"><stop offset="0" stop-color="#fff" stop-opacity="0"/><stop offset=".5" stop-color="#fff" stop-opacity=".05"/><stop offset="1" stop-color="#fff" stop-opacity="0"/></linearGradient><clipPath id="c0"><rect x="222" y="126" width="578" height="26"><animate attributeName="width" calcMode="discrete" values="0;12;24;36;48;60;72;84;96;108;120;132;144;156;168;180;192;204;216;228;240;252;264;276;288;300;312;324;336;348;360;372;384;396;408;420;432;444;456;468;480;492;504;516;528;540;552;564;576;576;0;0" keyTimes="0;0.00241;0.00482;0.00722;0.00963;0.01204;0.01445;0.01685;0.01926;0.02167;0.02408;0.02648;0.02889;0.03130;0.03371;0.03612;0.03852;0.04093;0.04334;0.04575;0.04815;0.05056;0.05297;0.05538;0.05778;0.06019;0.06260;0.06501;0.06742;0.06982;0.07223;0.07464;0.07705;0.07945;0.08186;0.08427;0.08668;0.08909;0.09149;0.09390;0.09631;0.09872;0.10112;0.10353;0.10594;0.10835;0.11075;0.11316;0.11557;0.20385;0.20389;1" dur="24.920s" repeatCount="indefinite"/></rect></clipPath><clipPath id="c1"><rect x="222" y="126" width="0" height="26"><animate attributeName="width" calcMode="discrete" values="0;12;24;36;48;60;72;84;96;108;120;132;144;156;168;180;192;204;216;228;240;252;264;276;288;300;312;324;336;348;360;372;384;396;408;420;432;444;456;468;480;492;504;504;0;0" keyTimes="0;0.21830;0.22071;0.22311;0.22552;0.22793;0.23034;0.23274;0.23515;0.23756;0.23997;0.24238;0.24478;0.24719;0.24960;0.25201;0.25441;0.25682;0.25923;0.26164;0.26404;0.26645;0.26886;0.27127;0.27368;0.27608;0.27849;0.28090;0.28331;0.28571;0.28812;0.29053;0.29294;0.29535;0.29775;0.30016;0.30257;0.30498;0.30738;0.30979;0.31220;0.31461;0.31701;0.40530;0.40534;1" dur="24.920s" repeatCount="indefinite"/></rect></clipPath><clipPath id="c2"><rect x="222" y="126" width="0" height="26"><animate attributeName="width" calcMode="discrete" values="0;12;24;36;48;60;72;84;96;108;120;132;144;156;168;180;192;204;216;228;240;252;264;276;288;300;312;324;336;348;360;372;384;396;408;420;432;444;456;468;480;492;504;516;528;540;552;564;576;576;0;0" keyTimes="0;0.41974;0.42215;0.42456;0.42697;0.42937;0.43178;0.43419;0.43660;0.43900;0.44141;0.44382;0.44623;0.44864;0.45104;0.45345;0.45586;0.45827;0.46067;0.46308;0.46549;0.46790;0.47030;0.47271;0.47512;0.47753;0.47994;0.48234;0.48475;0.48716;0.48957;0.49197;0.49438;0.49679;0.49920;0.50161;0.50401;0.50642;0.50883;0.51124;0.51364;0.51605;0.51846;0.52087;0.52327;0.52568;0.52809;0.53050;0.53291;0.62119;0.62123;1" dur="24.920s" repeatCount="indefinite"/></rect></clipPath><clipPath id="c3"><rect x="222" y="126" width="0" height="26"><animate attributeName="width" calcMode="discrete" values="0;12;24;36;48;60;72;84;96;108;120;132;144;156;168;180;192;204;216;228;240;252;264;276;288;300;312;324;336;348;360;372;384;396;408;420;432;432;0;0" keyTimes="0;0.63563;0.63804;0.64045;0.64286;0.64526;0.64767;0.65008;0.65249;0.65490;0.65730;0.65971;0.66212;0.66453;0.66693;0.66934;0.67175;0.67416;0.67657;0.67897;0.68138;0.68379;0.68620;0.68860;0.69101;0.69342;0.69583;0.69823;0.70064;0.70305;0.70546;0.70787;0.71027;0.71268;0.71509;0.71750;0.71990;0.80819;0.80823;1" dur="24.920s" repeatCount="indefinite"/></rect></clipPath><clipPath id="c4"><rect x="222" y="126" width="0" height="26"><animate attributeName="width" calcMode="discrete" values="0;12;24;36;48;60;72;84;96;108;120;132;144;156;168;180;192;204;216;228;240;252;264;276;288;300;312;324;336;348;360;372;384;396;396;0;0" keyTimes="0;0.82263;0.82504;0.82745;0.82986;0.83226;0.83467;0.83708;0.83949;0.84189;0.84430;0.84671;0.84912;0.85152;0.85393;0.85634;0.85875;0.86116;0.86356;0.86597;0.86838;0.87079;0.87319;0.87560;0.87801;0.88042;0.88283;0.88523;0.88764;0.89005;0.89246;0.89486;0.89727;0.89968;0.98796;0.98800;1" dur="24.920s" repeatCount="indefinite"/></rect></clipPath></defs><g shape-rendering="crispEdges"><path fill="#000000" d="M8 6h846v2h2v182h-2v2h-846v-2h-2v-182h2z"/><path fill="#30405f" d="M4 2h846v2h2v182h-2v2h-846v-2h-2v-182h2z"/><path fill="#0f1629" d="M6 4h842v2h2v178h-2v2h-842v-2h-2v-178h2z"/><rect x="345" y="50" width="2" height="2" fill="#fff1e8" opacity=".25"><animate attributeName="opacity" calcMode="discrete" values="1;1;0;1" keyTimes="0.0000;0.2500;0.5000;0.7500" dur="2.7s" begin="-1.6s" repeatCount="indefinite"/></rect><rect x="388" y="26" width="4" height="4" fill="#fff1e8" opacity=".25"></rect><rect x="52" y="34" width="2" height="2" fill="#fff1e8" opacity=".25"></rect><rect x="260" y="35" width="2" height="2" fill="#fff1e8" opacity=".25"><animate attributeName="opacity" calcMode="discrete" values="1;1;0;1" keyTimes="0.0000;0.2500;0.5000;0.7500" dur="5s" begin="-0.4s" repeatCount="indefinite"/></rect><rect x="242" y="27" width="2" height="2" fill="#fff1e8" opacity=".35"></rect><rect x="64" y="68" width="2" height="2" fill="#fff1e8" opacity=".25"></rect><rect x="310" y="119" width="2" height="2" fill="#fff1e8" opacity=".25"><animate attributeName="opacity" calcMode="discrete" values="1;1;0;1" keyTimes="0.0000;0.2500;0.5000;0.7500" dur="4.2s" begin="-1.7s" repeatCount="indefinite"/></rect><rect x="712" y="58" width="2" height="2" fill="#fff1e8" opacity=".5"></rect><rect x="668" y="60" width="2" height="2" fill="#fff1e8" opacity=".5"></rect><rect x="743" y="28" width="2" height="2" fill="#fff1e8" opacity=".5"><animate attributeName="opacity" calcMode="discrete" values="1;1;0;1" keyTimes="0.0000;0.2500;0.5000;0.7500" dur="3.1s" begin="-2s" repeatCount="indefinite"/></rect><rect x="451" y="92" width="2" height="2" fill="#fff1e8" opacity=".35"></rect><rect x="384" y="88" width="2" height="2" fill="#fff1e8" opacity=".25"></rect><rect x="729" y="74" width="2" height="2" fill="#fff1e8" opacity=".35"><animate attributeName="opacity" calcMode="discrete" values="1;1;0;1" keyTimes="0.0000;0.2500;0.5000;0.7500" dur="4.1s" begin="-2.6s" repeatCount="indefinite"/></rect><rect x="760" y="126" width="2" height="2" fill="#fff1e8" opacity=".25"></rect><rect x="134" y="143" width="2" height="2" fill="#fff1e8" opacity=".35"></rect><rect x="169" y="137" width="2" height="2" fill="#fff1e8" opacity=".5"><animate attributeName="opacity" calcMode="discrete" values="1;1;0;1" keyTimes="0.0000;0.2500;0.5000;0.7500" dur="2.7s" begin="-1.7s" repeatCount="indefinite"/></rect><rect x="822" y="92" width="2" height="2" fill="#fff1e8" opacity=".35"></rect><rect x="622" y="139" width="2" height="2" fill="#fff1e8" opacity=".35"></rect><rect x="84" y="35" width="4" height="4" fill="#fff1e8" opacity=".35"><animate attributeName="opacity" calcMode="discrete" values="1;1;0;1" keyTimes="0.0000;0.2500;0.5000;0.7500" dur="4.6s" begin="-0.2s" repeatCount="indefinite"/></rect><rect x="762" y="91" width="2" height="2" fill="#fff1e8" opacity=".5"></rect><rect x="470" y="84" width="2" height="2" fill="#fff1e8" opacity=".5"></rect><rect x="369" y="17" width="4" height="4" fill="#fff1e8" opacity=".35"><animate attributeName="opacity" calcMode="discrete" values="1;1;0;1" keyTimes="0.0000;0.2500;0.5000;0.7500" dur="3s" begin="-0.4s" repeatCount="indefinite"/></rect><g transform="translate(30 14)"><g transform="scale(4)"><path fill="#1b1325" d="M8 17h7v1h-7zM7 18h1v1h-1zM15 18h1v1h-1zM6 19h1v1h-1zM16 19h1v1h-1zM6 20h1v1h-1zM17 20h1v1h-1zM6 21h1v1h-1zM17 21h1v1h-1zM6 22h1v1h-1zM15 22h1v1h-1zM17 22h1v1h-1zM6 23h1v1h-1zM15 23h1v1h-1zM17 23h1v1h-1zM7 24h1v1h-1zM16 24h1v1h-1zM8 25h2v1h-2zM14 25h2v1h-2zM7 26h1v1h-1zM16 26h1v1h-1zM6 27h1v1h-1zM16 27h1v1h-1zM6 28h1v1h-1zM16 28h1v1h-1zM6 29h1v1h-1zM15 29h1v1h-1zM7 30h1v1h-1zM11 30h1v1h-1zM15 30h1v1h-1zM6 31h1v1h-1zM10 31h1v1h-1zM12 31h1v1h-1zM16 31h1v1h-1z"/><path fill="#ff004d" d="M8 18h7v1h-7zM7 19h1v1h-1zM7 20h1v1h-1z"/><path fill="#2e1f27" d="M8 19h8v1h-8zM8 20h9v1h-9zM9 21h3v1h-3zM9 22h2v1h-2zM9 23h1v1h-1zM8 24h1v1h-1z"/><path fill="#be1250" d="M7 21h2v1h-2zM7 22h2v1h-2zM7 23h2v1h-2z"/><path fill="#d58c5d" d="M12 21h5v1h-5zM11 22h4v1h-4zM16 22h1v1h-1zM10 23h5v1h-5zM16 23h1v1h-1zM9 24h7v1h-7zM10 25h4v1h-4z"/><path fill="#29adff" d="M8 26h3v1h-3zM13 26h3v1h-3zM7 27h9v1h-9zM8 28h7v1h-7z"/><path fill="#fff1e8" d="M11 26h2v1h-2zM7 31h3v1h-3zM13 31h3v1h-3z"/><path fill="#065ab5" d="M7 28h1v1h-1zM15 28h1v1h-1zM7 29h8v1h-8z"/><path fill="#1d2b53" d="M8 30h3v1h-3zM12 30h3v1h-3z"/><path fill="#00e436" d="M0 32h40v1h-40zM0 33h1v1h-1zM2 33h5v1h-5zM8 33h5v1h-5zM14 33h3v1h-3zM18 33h5v1h-5zM24 33h5v1h-5zM30 33h3v1h-3zM34 33h5v1h-5zM3 34h1v1h-1zM8 34h1v1h-1zM13 34h1v1h-1zM19 34h1v1h-1zM24 34h1v1h-1zM29 34h1v1h-1zM35 34h1v1h-1z"/><path fill="#008751" d="M1 33h1v1h-1zM7 33h1v1h-1zM13 33h1v1h-1zM17 33h1v1h-1zM23 33h1v1h-1zM29 33h1v1h-1zM33 33h1v1h-1zM39 33h1v1h-1zM0 34h1v1h-1zM2 34h1v1h-1zM4 34h1v1h-1zM6 34h2v1h-2zM9 34h2v1h-2zM12 34h1v1h-1zM14 34h1v1h-1zM16 34h1v1h-1zM18 34h1v1h-1zM20 34h1v1h-1zM22 34h2v1h-2zM25 34h2v1h-2zM28 34h1v1h-1zM30 34h1v1h-1zM32 34h1v1h-1zM34 34h1v1h-1zM36 34h1v1h-1zM38 34h2v1h-2zM3 35h1v1h-1zM9 35h1v1h-1zM19 35h1v1h-1zM25 35h1v1h-1zM35 35h1v1h-1z"/><path fill="#ab5236" d="M1 34h1v1h-1zM5 34h1v1h-1zM11 34h1v1h-1zM15 34h1v1h-1zM17 34h1v1h-1zM21 34h1v1h-1zM27 34h1v1h-1zM31 34h1v1h-1zM33 34h1v1h-1zM37 34h1v1h-1zM0 35h3v1h-3zM4 35h5v1h-5zM10 35h9v1h-9zM20 35h5v1h-5zM26 35h9v1h-9zM36 35h4v1h-4zM0 36h40v1h-40zM0 37h2v1h-2zM3 37h8v1h-8zM12 37h6v1h-6zM19 37h8v1h-8zM28 37h6v1h-6zM35 37h5v1h-5zM0 38h40v1h-40zM0 39h6v1h-6zM7 39h7v1h-7zM15 39h7v1h-7zM23 39h7v1h-7zM31 39h7v1h-7zM39 39h1v1h-1z"/><path fill="#742f29" d="M2 37h1v1h-1zM11 37h1v1h-1zM18 37h1v1h-1zM27 37h1v1h-1zM34 37h1v1h-1zM6 39h1v1h-1zM14 39h1v1h-1zM22 39h1v1h-1zM30 39h1v1h-1zM38 39h1v1h-1z"/><g><animate attributeName="opacity" calcMode="discrete" values="1;1;1;0;1;0;1;1;1;1;1;1" keyTimes="0.0000;0.0833;0.1667;0.2500;0.3333;0.4167;0.5000;0.5833;0.6667;0.7500;0.8333;0.9167" dur="6s" repeatCount="indefinite"/><g transform="translate(4 16)"><path fill="#1b1325" d="M12 3h1v1h-1zM14 3h1v1h-1zM12 4h3v1h-3z"/><path fill="#d58c5d" d="M13 3h1v1h-1z"/><path fill="#29adff" d="M12 5h2v5h-2z"/></g></g><g opacity="0"><animate attributeName="opacity" calcMode="discrete" values="0;0;0;1;0;1;0;0;0;0;0;0" keyTimes="0.0000;0.0833;0.1667;0.2500;0.3333;0.4167;0.5000;0.5833;0.6667;0.7500;0.8333;0.9167" dur="6s" repeatCount="indefinite"/><g transform="translate(4 16)"><path fill="#1b1325" d="M13 2h1v1h-1zM15 2h1v1h-1zM13 3h3v1h-3z"/><path fill="#d58c5d" d="M14 2h1v1h-1z"/><path fill="#29adff" d="M13 4h2v6h-2z"/></g></g><g><animateTransform attributeName="transform" type="translate" values="0 0;0 0;0 -2;0 0;0 0" keyTimes="0;.5;.53;.58;1" dur="6s" repeatCount="indefinite"/><path fill="#1b1325" d="M23 6h14v1h-14zM22 7h1v1h-1zM37 7h1v1h-1zM22 8h1v1h-1zM37 8h1v1h-1zM22 9h1v1h-1zM37 9h1v1h-1zM22 10h1v1h-1zM27 10h2v1h-2zM32 10h2v1h-2zM37 10h1v1h-1zM22 11h1v1h-1zM26 11h1v1h-1zM34 11h1v1h-1zM37 11h1v1h-1zM22 12h1v1h-1zM26 12h1v1h-1zM34 12h1v1h-1zM37 12h1v1h-1zM22 13h1v1h-1zM25 13h1v1h-1zM35 13h1v1h-1zM37 13h1v1h-1zM22 14h1v1h-1zM26 14h1v1h-1zM34 14h1v1h-1zM37 14h1v1h-1zM22 15h1v1h-1zM26 15h1v1h-1zM34 15h1v1h-1zM37 15h1v1h-1zM22 16h1v1h-1zM27 16h2v1h-2zM32 16h2v1h-2zM37 16h1v1h-1zM22 17h1v1h-1zM37 17h1v1h-1zM22 18h1v1h-1zM37 18h1v1h-1zM22 19h1v1h-1zM37 19h1v1h-1zM22 20h1v1h-1zM37 20h1v1h-1zM23 21h14v1h-14z"/><path fill="#ffec27" d="M23 7h14v1h-14zM23 8h1v1h-1zM25 8h10v1h-10zM23 9h13v1h-13zM23 10h4v1h-4zM29 10h3v1h-3zM34 10h2v1h-2zM23 11h3v1h-3zM27 11h7v1h-7zM35 11h1v1h-1zM23 12h3v1h-3zM27 12h7v1h-7zM35 12h1v1h-1zM23 13h2v1h-2zM26 13h9v1h-9zM23 14h3v1h-3zM27 14h7v1h-7zM35 14h1v1h-1zM23 15h3v1h-3zM27 15h7v1h-7zM35 15h1v1h-1zM23 16h4v1h-4zM29 16h3v1h-3zM34 16h2v1h-2zM23 17h13v1h-13zM23 18h13v1h-13zM23 19h1v1h-1zM25 19h10v1h-10z"/><path fill="#ffa300" d="M36 8h1v1h-1zM36 9h1v1h-1zM36 10h1v1h-1zM36 11h1v1h-1zM36 12h1v1h-1zM36 13h1v1h-1zM36 14h1v1h-1zM36 15h1v1h-1zM36 16h1v1h-1zM36 17h1v1h-1zM36 18h1v1h-1zM36 19h1v1h-1zM23 20h14v1h-14z"/><path fill="#fff1e8" d="M24 8h1v1h-1zM35 8h1v1h-1zM24 19h1v1h-1zM35 19h1v1h-1z"/></g><g opacity="0"><animate attributeName="opacity" values="0;0;1;1;0;0" keyTimes="0;.5;.51;.62;.68;1" dur="6s" repeatCount="indefinite"/><animateTransform attributeName="transform" type="translate" values="0 0;0 0;0 -9;0 -9" keyTimes="0;.5;.64;1" dur="6s" repeatCount="indefinite"/><path fill="#1b1325" d="M28 -2h4v1h-4zM27 -1h1v1h-1zM32 -1h1v1h-1zM26 0h1v1h-1zM33 0h1v1h-1zM26 1h1v1h-1zM33 1h1v1h-1zM26 2h1v1h-1zM33 2h1v1h-1zM26 3h1v1h-1zM33 3h1v1h-1zM26 4h1v1h-1zM33 4h1v1h-1zM27 5h1v1h-1zM32 5h1v1h-1zM28 6h4v1h-4z"/><path fill="#ffec27" d="M28 -1h1v1h-1zM31 -1h1v1h-1zM27 0h1v1h-1zM29 0h3v1h-3zM27 1h3v1h-3zM31 1h1v1h-1zM27 2h3v1h-3zM31 2h1v1h-1zM27 3h3v1h-3zM31 3h1v1h-1zM27 4h2v1h-2zM31 4h1v1h-1zM28 5h3v1h-3z"/><path fill="#ffa300" d="M32 0h1v1h-1zM32 1h1v1h-1zM32 2h1v1h-1zM32 3h1v1h-1zM32 4h1v1h-1zM31 5h1v1h-1z"/><path fill="#ab5236" d="M30 1h1v1h-1zM30 2h1v1h-1zM30 3h1v1h-1zM29 4h2v1h-2z"/><path fill="#fff1e8" d="M29 -1h2v1h-2zM28 0h1v1h-1z"/></g></g></g><g fill="#000000" transform="translate(224 42) scale(4)"><use href="#g72" x="0"/><use href="#g69" x="6"/><use href="#g89" x="12"/><use href="#g44" x="18"/><use href="#g73" x="30"/><use href="#g39" x="36"/><use href="#g77" x="42"/><use href="#g77" x="54"/><use href="#g79" x="60"/><use href="#g72" x="66"/><use href="#g73" x="72"/><use href="#g84" x="78"/></g><g fill="#fff1e8" transform="translate(224 38) scale(4)"><use href="#g72" x="0"/><use href="#g69" x="6"/><use href="#g89" x="12"/><use href="#g44" x="18"/><use href="#g73" x="30"/><use href="#g39" x="36"/><use href="#g77" x="42"/><use href="#g77" x="54"/><use href="#g79" x="60"/><use href="#g72" x="66"/><use href="#g73" x="72"/><use href="#g84" x="78"/></g><g fill="#7ee787" transform="translate(224 92) scale(2)"><use href="#g70" x="0"/><use href="#g85" x="6"/><use href="#g76" x="12"/><use href="#g76" x="18"/><use href="#g45" x="24"/><use href="#g83" x="30"/><use href="#g84" x="36"/><use href="#g65" x="42"/><use href="#g67" x="48"/><use href="#g75" x="54"/><use href="#g83" x="66"/><use href="#g79" x="72"/><use href="#g70" x="78"/><use href="#g84" x="84"/><use href="#g87" x="90"/><use href="#g65" x="96"/><use href="#g82" x="102"/><use href="#g69" x="108"/><use href="#g68" x="120"/><use href="#g69" x="126"/><use href="#g86" x="132"/><use href="#g69" x="138"/><use href="#g76" x="144"/><use href="#g79" x="150"/><use href="#g80" x="156"/><use href="#g69" x="162"/><use href="#g82" x="168"/></g><g clip-path="url(#c0)"><g fill="#7ee787" transform="translate(224 130) scale(2)"><use href="#g62" x="0"/></g><g fill="#fff1e8" transform="translate(236 130) scale(2)"><use href="#g98" x="6"/><use href="#g117" x="12"/><use href="#g105" x="18"/><use href="#g108" x="24"/><use href="#g100" x="30"/><use href="#g105" x="36"/><use href="#g110" x="42"/><use href="#g103" x="48"/><use href="#g65" x="60"/><use href="#g73" x="66"/><use href="#g99" x="78"/><use href="#g104" x="84"/><use href="#g97" x="90"/><use href="#g116" x="96"/><use href="#g97" x="108"/><use href="#g112" x="114"/><use href="#g112" x="120"/><use href="#g115" x="126"/><use href="#g119" x="138"/><use href="#g105" x="144"/><use href="#g116" x="150"/><use href="#g104" x="156"/><use href="#g50" x="168"/><use href="#g48" x="174"/><use href="#g77" x="180"/><use href="#g43" x="186"/><use href="#g118" x="198"/><use href="#g105" x="204"/><use href="#g115" x="210"/><use href="#g105" x="216"/><use href="#g116" x="222"/><use href="#g115" x="228"/><use href="#g97" x="240"/><use href="#g109" x="252"/><use href="#g111" x="258"/><use href="#g110" x="264"/><use href="#g116" x="270"/><use href="#g104" x="276"/></g></g><rect y="129" width="10" height="16" fill="#7ee787" opacity="0"><animate attributeName="x" calcMode="discrete" values="224;224;236;248;260;272;284;296;308;320;332;344;356;368;380;392;404;416;428;440;452;464;476;488;500;512;524;536;548;560;572;584;596;608;620;632;644;656;668;680;692;704;716;728;740;752;764;776;788;800;800;800" keyTimes="0;0.00000;0.00241;0.00482;0.00722;0.00963;0.01204;0.01445;0.01685;0.01926;0.02167;0.02408;0.02648;0.02889;0.03130;0.03371;0.03612;0.03852;0.04093;0.04334;0.04575;0.04815;0.05056;0.05297;0.05538;0.05778;0.06019;0.06260;0.06501;0.06742;0.06982;0.07223;0.07464;0.07705;0.07945;0.08186;0.08427;0.08668;0.08909;0.09149;0.09390;0.09631;0.09872;0.10112;0.10353;0.10594;0.10835;0.11075;0.11316;0.11557;0.20385;1" dur="24.920s" repeatCount="indefinite"/><animate attributeName="opacity" calcMode="discrete" values="0;1;0" keyTimes="0;0.00000;0.20385" dur="24.920s" repeatCount="indefinite"/></rect><g clip-path="url(#c1)"><g fill="#7ee787" transform="translate(224 130) scale(2)"><use href="#g62" x="0"/></g><g fill="#fff1e8" transform="translate(236 130) scale(2)"><use href="#g115" x="6"/><use href="#g101" x="12"/><use href="#g114" x="18"/><use href="#g118" x="24"/><use href="#g101" x="30"/><use href="#g114" x="36"/><use href="#g108" x="42"/><use href="#g101" x="48"/><use href="#g115" x="54"/><use href="#g115" x="60"/><use href="#g44" x="66"/><use href="#g101" x="78"/><use href="#g118" x="84"/><use href="#g101" x="90"/><use href="#g110" x="96"/><use href="#g116" x="102"/><use href="#g45" x="108"/><use href="#g100" x="114"/><use href="#g114" x="120"/><use href="#g105" x="126"/><use href="#g118" x="132"/><use href="#g101" x="138"/><use href="#g110" x="144"/><use href="#g98" x="156"/><use href="#g97" x="162"/><use href="#g99" x="168"/><use href="#g107" x="174"/><use href="#g101" x="180"/><use href="#g110" x="186"/><use href="#g100" x="192"/><use href="#g115" x="198"/><use href="#g111" x="210"/><use href="#g110" x="216"/><use href="#g65" x="228"/><use href="#g87" x="234"/><use href="#g83" x="240"/></g></g><rect y="129" width="10" height="16" fill="#7ee787" opacity="0"><animate attributeName="x" calcMode="discrete" values="224;224;236;248;260;272;284;296;308;320;332;344;356;368;380;392;404;416;428;440;452;464;476;488;500;512;524;536;548;560;572;584;596;608;620;632;644;656;668;680;692;704;716;728;728;728" keyTimes="0;0.21589;0.21830;0.22071;0.22311;0.22552;0.22793;0.23034;0.23274;0.23515;0.23756;0.23997;0.24238;0.24478;0.24719;0.24960;0.25201;0.25441;0.25682;0.25923;0.26164;0.26404;0.26645;0.26886;0.27127;0.27368;0.27608;0.27849;0.28090;0.28331;0.28571;0.28812;0.29053;0.29294;0.29535;0.29775;0.30016;0.30257;0.30498;0.30738;0.30979;0.31220;0.31461;0.31701;0.40530;1" dur="24.920s" repeatCount="indefinite"/><animate attributeName="opacity" calcMode="discrete" values="0;1;0" keyTimes="0;0.21589;0.40530" dur="24.920s" repeatCount="indefinite"/></rect><g clip-path="url(#c2)"><g fill="#7ee787" transform="translate(224 130) scale(2)"><use href="#g62" x="0"/></g><g fill="#fff1e8" transform="translate(236 130) scale(2)"><use href="#g76" x="6"/><use href="#g76" x="12"/><use href="#g77" x="18"/><use href="#g101" x="30"/><use href="#g110" x="36"/><use href="#g100" x="42"/><use href="#g112" x="48"/><use href="#g111" x="54"/><use href="#g105" x="60"/><use href="#g110" x="66"/><use href="#g116" x="72"/><use href="#g115" x="78"/><use href="#g44" x="84"/><use href="#g76" x="96"/><use href="#g97" x="102"/><use href="#g110" x="108"/><use href="#g103" x="114"/><use href="#g67" x="120"/><use href="#g104" x="126"/><use href="#g97" x="132"/><use href="#g105" x="138"/><use href="#g110" x="144"/><use href="#g97" x="156"/><use href="#g103" x="162"/><use href="#g101" x="168"/><use href="#g110" x="174"/><use href="#g116" x="180"/><use href="#g115" x="186"/><use href="#g44" x="192"/><use href="#g118" x="204"/><use href="#g101" x="210"/><use href="#g99" x="216"/><use href="#g116" x="222"/><use href="#g111" x="228"/><use href="#g114" x="234"/><use href="#g115" x="246"/><use href="#g101" x="252"/><use href="#g97" x="258"/><use href="#g114" x="264"/><use href="#g99" x="270"/><use href="#g104" x="276"/></g></g><rect y="129" width="10" height="16" fill="#7ee787" opacity="0"><animate attributeName="x" calcMode="discrete" values="224;224;236;248;260;272;284;296;308;320;332;344;356;368;380;392;404;416;428;440;452;464;476;488;500;512;524;536;548;560;572;584;596;608;620;632;644;656;668;680;692;704;716;728;740;752;764;776;788;800;800;800" keyTimes="0;0.41734;0.41974;0.42215;0.42456;0.42697;0.42937;0.43178;0.43419;0.43660;0.43900;0.44141;0.44382;0.44623;0.44864;0.45104;0.45345;0.45586;0.45827;0.46067;0.46308;0.46549;0.46790;0.47030;0.47271;0.47512;0.47753;0.47994;0.48234;0.48475;0.48716;0.48957;0.49197;0.49438;0.49679;0.49920;0.50161;0.50401;0.50642;0.50883;0.51124;0.51364;0.51605;0.51846;0.52087;0.52327;0.52568;0.52809;0.53050;0.53291;0.62119;1" dur="24.920s" repeatCount="indefinite"/><animate attributeName="opacity" calcMode="discrete" values="0;1;0" keyTimes="0;0.41734;0.62119" dur="24.920s" repeatCount="indefinite"/></rect><g clip-path="url(#c3)"><g fill="#7ee787" transform="translate(224 130) scale(2)"><use href="#g62" x="0"/></g><g fill="#fff1e8" transform="translate(236 130) scale(2)"><use href="#g105" x="6"/><use href="#g110" x="12"/><use href="#g45" x="18"/><use href="#g97" x="24"/><use href="#g112" x="30"/><use href="#g112" x="36"/><use href="#g112" x="48"/><use href="#g97" x="54"/><use href="#g121" x="60"/><use href="#g109" x="66"/><use href="#g101" x="72"/><use href="#g110" x="78"/><use href="#g116" x="84"/><use href="#g115" x="90"/><use href="#g111" x="102"/><use href="#g110" x="108"/><use href="#g105" x="120"/><use href="#g79" x="126"/><use href="#g83" x="132"/><use href="#g97" x="144"/><use href="#g110" x="150"/><use href="#g100" x="156"/><use href="#g65" x="168"/><use href="#g110" x="174"/><use href="#g100" x="180"/><use href="#g114" x="186"/><use href="#g111" x="192"/><use href="#g105" x="198"/><use href="#g100" x="204"/></g></g><rect y="129" width="10" height="16" fill="#7ee787" opacity="0"><animate attributeName="x" calcMode="discrete" values="224;224;236;248;260;272;284;296;308;320;332;344;356;368;380;392;404;416;428;440;452;464;476;488;500;512;524;536;548;560;572;584;596;608;620;632;644;656;656;656" keyTimes="0;0.63323;0.63563;0.63804;0.64045;0.64286;0.64526;0.64767;0.65008;0.65249;0.65490;0.65730;0.65971;0.66212;0.66453;0.66693;0.66934;0.67175;0.67416;0.67657;0.67897;0.68138;0.68379;0.68620;0.68860;0.69101;0.69342;0.69583;0.69823;0.70064;0.70305;0.70546;0.70787;0.71027;0.71268;0.71509;0.71750;0.71990;0.80819;1" dur="24.920s" repeatCount="indefinite"/><animate attributeName="opacity" calcMode="discrete" values="0;1;0" keyTimes="0;0.63323;0.80819" dur="24.920s" repeatCount="indefinite"/></rect><g clip-path="url(#c4)"><g fill="#7ee787" transform="translate(224 130) scale(2)"><use href="#g62" x="0"/></g><g fill="#fff1e8" transform="translate(236 130) scale(2)"><use href="#g50" x="6"/><use href="#g43" x="12"/><use href="#g121" x="24"/><use href="#g101" x="30"/><use href="#g97" x="36"/><use href="#g114" x="42"/><use href="#g115" x="48"/><use href="#g115" x="60"/><use href="#g104" x="66"/><use href="#g105" x="72"/><use href="#g112" x="78"/><use href="#g112" x="84"/><use href="#g105" x="90"/><use href="#g110" x="96"/><use href="#g103" x="102"/><use href="#g116" x="114"/><use href="#g111" x="120"/><use href="#g112" x="132"/><use href="#g114" x="138"/><use href="#g111" x="144"/><use href="#g100" x="150"/><use href="#g117" x="156"/><use href="#g99" x="162"/><use href="#g116" x="168"/><use href="#g105" x="174"/><use href="#g111" x="180"/><use href="#g110" x="186"/></g></g><rect y="129" width="10" height="16" fill="#7ee787" opacity="0"><animate attributeName="x" calcMode="discrete" values="224;224;236;248;260;272;284;296;308;320;332;344;356;368;380;392;404;416;428;440;452;464;476;488;500;512;524;536;548;560;572;584;596;608;620;620;620" keyTimes="0;0.82022;0.82263;0.82504;0.82745;0.82986;0.83226;0.83467;0.83708;0.83949;0.84189;0.84430;0.84671;0.84912;0.85152;0.85393;0.85634;0.85875;0.86116;0.86356;0.86597;0.86838;0.87079;0.87319;0.87560;0.87801;0.88042;0.88283;0.88523;0.88764;0.89005;0.89246;0.89486;0.89727;0.89968;0.98796;1" dur="24.920s" repeatCount="indefinite"/><animate attributeName="opacity" calcMode="discrete" values="0;1;0" keyTimes="0;0.82022;0.98796" dur="24.920s" repeatCount="indefinite"/></rect><rect x="-120" y="6" width="90" height="178" fill="url(#shine)"><animate attributeName="x" values="-120;-120;860;860" keyTimes="0;.62;.9;1" dur="11s" repeatCount="indefinite"/></rect></g></svg>
