<svg xmlns="http://www.w3.org/2000/svg" width="86" height="30" viewBox="0 0 86 30" role="img" aria-labelledby="t"><title id="t">About</title><defs><path id="g65" d="M1 0h3v1h-3zM0 1h1v1h-1zM4 1h1v1h-1zM0 2h1v1h-1zM4 2h1v1h-1zM0 3h5v1h-5zM0 4h1v1h-1zM4 4h1v1h-1zM0 5h1v1h-1zM4 5h1v1h-1zM0 6h1v1h-1zM4 6h1v1h-1z"/><path id="g66" d="M0 0h4v1h-4zM0 1h1v1h-1zM4 1h1v1h-1zM0 2h1v1h-1zM4 2h1v1h-1zM0 3h4v1h-4zM0 4h1v1h-1zM4 4h1v1h-1zM0 5h1v1h-1zM4 5h1v1h-1zM0 6h4v1h-4z"/><path id="g79" d="M1 0h3v1h-3zM0 1h1v1h-1zM4 1h1v1h-1zM0 2h1v1h-1zM4 2h1v1h-1zM0 3h1v1h-1zM4 3h1v1h-1zM0 4h1v1h-1zM4 4h1v1h-1zM0 5h1v1h-1zM4 5h1v1h-1zM1 6h3v1h-3z"/><path id="g84" d="M0 0h5v1h-5zM2 1h1v1h-1zM2 2h1v1h-1zM2 3h1v1h-1zM2 4h1v1h-1zM2 5h1v1h-1zM2 6h1v1h-1z"/><path id="g85" d="M0 0h1v1h-1zM4 0h1v1h-1zM0 1h1v1h-1zM4 1h1v1h-1zM0 2h1v1h-1zM4 2h1v1h-1zM0 3h1v1h-1zM4 3h1v1h-1zM0 4h1v1h-1zM4 4h1v1h-1zM0 5h1v1h-1zM4 5h1v1h-1zM1 6h3v1h-3z"/></defs><g shape-rendering="crispEdges"><path fill="#000000" d="M6 4h78v2h2v22h-2v2h-78v-2h-2v-22h2z"/><path fill="#000000" d="M2 0h78v2h2v22h-2v2h-78v-2h-2v-22h2z"/><path fill="#1d2b53" d="M4 2h74v2h2v18h-2v2h-74v-2h-2v-18h2z"/><rect x="2" y="2" width="78" height="2" fill="#2f4380"/><g fill="#fff1e8" transform="translate(12 7) scale(2)"><use href="#g65" x="0"/><use href="#g66" x="6"/><use href="#g79" x="12"/><use href="#g85" x="18"/><use href="#g84" x="24"/></g></g></svg>
