<svg xmlns="http://www.w3.org/2000/svg" width="360" height="248" viewBox="0 0 360 248" role="img" aria-labelledby="t"><title id="t">Expensify: Expense manager with Google sign-in and Firebase sync. Built with React, Redux, Firebase, Jest, Webpack. Opens the code on GitHub.</title><defs><path id="g45" d="M0 3h5v1h-5z"/><path id="g67" d="M1 0h3v1h-3zM0 1h1v1h-1zM4 1h1v1h-1zM0 2h1v1h-1zM0 3h1v1h-1zM0 4h1v1h-1zM0 5h1v1h-1zM4 5h1v1h-1zM1 6h3v1h-3z"/><path id="g68" d="M0 0h4v1h-4zM0 1h1v1h-1zM4 1h1v1h-1zM0 2h1v1h-1zM4 2h1v1h-1zM0 3h1v1h-1zM4 3h1v1h-1zM0 4h1v1h-1zM4 4h1v1h-1zM0 5h1v1h-1zM4 5h1v1h-1zM0 6h4v1h-4z"/><path id="g69" d="M0 0h5v1h-5zM0 1h1v1h-1zM0 2h1v1h-1zM0 3h4v1h-4zM0 4h1v1h-1zM0 5h1v1h-1zM0 6h5v1h-5z"/><path id="g70" d="M0 0h5v1h-5zM0 1h1v1h-1zM0 2h1v1h-1zM0 3h4v1h-4zM0 4h1v1h-1zM0 5h1v1h-1zM0 6h1v1h-1z"/><path id="g71" d="M1 0h3v1h-3zM0 1h1v1h-1zM4 1h1v1h-1zM0 2h1v1h-1zM0 3h1v1h-1zM2 3h3v1h-3zM0 4h1v1h-1zM4 4h1v1h-1zM0 5h1v1h-1zM4 5h1v1h-1zM1 6h4v1h-4z"/><path id="g73" d="M1 0h3v1h-3zM2 1h1v1h-1zM2 2h1v1h-1zM2 3h1v1h-1zM2 4h1v1h-1zM2 5h1v1h-1zM1 6h3v1h-3z"/><path id="g74" d="M2 0h3v1h-3zM3 1h1v1h-1zM3 2h1v1h-1zM3 3h1v1h-1zM3 4h1v1h-1zM0 5h1v1h-1zM3 5h1v1h-1zM1 6h2v1h-2z"/><path id="g78" d="M0 0h1v1h-1zM4 0h1v1h-1zM0 1h1v1h-1zM4 1h1v1h-1zM0 2h2v1h-2zM4 2h1v1h-1zM0 3h1v1h-1zM2 3h1v1h-1zM4 3h1v1h-1zM0 4h1v1h-1zM3 4h2v1h-2zM0 5h1v1h-1zM4 5h1v1h-1zM0 6h1v1h-1zM4 6h1v1h-1z"/><path id="g79" d="M1 0h3v1h-3zM0 1h1v1h-1zM4 1h1v1h-1zM0 2h1v1h-1zM4 2h1v1h-1zM0 3h1v1h-1zM4 3h1v1h-1zM0 4h1v1h-1zM4 4h1v1h-1zM0 5h1v1h-1zM4 5h1v1h-1zM1 6h3v1h-3z"/><path id="g80" d="M0 0h4v1h-4zM0 1h1v1h-1zM4 1h1v1h-1zM0 2h1v1h-1zM4 2h1v1h-1zM0 3h4v1h-4zM0 4h1v1h-1zM0 5h1v1h-1zM0 6h1v1h-1z"/><path id="g82" d="M0 0h4v1h-4zM0 1h1v1h-1zM4 1h1v1h-1zM0 2h1v1h-1zM4 2h1v1h-1zM0 3h4v1h-4zM0 4h1v1h-1zM2 4h1v1h-1zM0 5h1v1h-1zM3 5h1v1h-1zM0 6h1v1h-1zM4 6h1v1h-1z"/><path id="g83" d="M1 0h4v1h-4zM0 1h1v1h-1zM0 2h1v1h-1zM1 3h3v1h-3zM4 4h1v1h-1zM4 5h1v1h-1zM0 6h4v1h-4z"/><path id="g86" d="M0 0h1v1h-1zM4 0h1v1h-1zM0 1h1v1h-1zM4 1h1v1h-1zM0 2h1v1h-1zM4 2h1v1h-1zM0 3h1v1h-1zM4 3h1v1h-1zM0 4h1v1h-1zM4 4h1v1h-1zM1 5h1v1h-1zM3 5h1v1h-1zM2 6h1v1h-1z"/><path id="g87" d="M0 0h1v1h-1zM4 0h1v1h-1zM0 1h1v1h-1zM4 1h1v1h-1zM0 2h1v1h-1zM4 2h1v1h-1zM0 3h1v1h-1zM2 3h1v1h-1zM4 3h1v1h-1zM0 4h1v1h-1zM2 4h1v1h-1zM4 4h1v1h-1zM0 5h1v1h-1zM2 5h1v1h-1zM4 5h1v1h-1zM1 6h1v1h-1zM3 6h1v1h-1z"/><path id="g88" d="M0 0h1v1h-1zM4 0h1v1h-1zM0 1h1v1h-1zM4 1h1v1h-1zM1 2h1v1h-1zM3 2h1v1h-1zM2 3h1v1h-1zM1 4h1v1h-1zM3 4h1v1h-1zM0 5h1v1h-1zM4 5h1v1h-1zM0 6h1v1h-1zM4 6h1v1h-1z"/><path id="g89" d="M0 0h1v1h-1zM4 0h1v1h-1zM0 1h1v1h-1zM4 1h1v1h-1zM1 2h1v1h-1zM3 2h1v1h-1zM2 3h1v1h-1zM2 4h1v1h-1zM2 5h1v1h-1zM2 6h1v1h-1z"/><path id="g97" d="M1 2h3v1h-3zM4 3h1v1h-1zM1 4h4v1h-4zM0 5h1v1h-1zM4 5h1v1h-1zM1 6h4v1h-4z"/><path id="g98" d="M0 0h1v1h-1zM0 1h1v1h-1zM0 2h4v1h-4zM0 3h1v1h-1zM4 3h1v1h-1zM0 4h1v1h-1zM4 4h1v1h-1zM0 5h1v1h-1zM4 5h1v1h-1zM0 6h4v1h-4z"/><path id="g99" d="M1 2h3v1h-3zM0 3h1v1h-1zM0 4h1v1h-1zM0 5h1v1h-1zM4 5h1v1h-1zM1 6h3v1h-3z"/><path id="g100" d="M4 0h1v1h-1zM4 1h1v1h-1zM1 2h4v1h-4zM0 3h1v1h-1zM4 3h1v1h-1zM0 4h1v1h-1zM4 4h1v1h-1zM0 5h1v1h-1zM4 5h1v1h-1zM1 6h4v1h-4z"/><path id="g101" d="M1 2h3v1h-3zM0 3h1v1h-1zM4 3h1v1h-1zM0 4h5v1h-5zM0 5h1v1h-1zM1 6h3v1h-3z"/><path id="g103" d="M1 2h4v1h-4zM0 3h1v1h-1zM4 3h1v1h-1zM0 4h1v1h-1zM4 4h1v1h-1zM0 5h1v1h-1zM4 5h1v1h-1zM1 6h4v1h-4zM4 7h1v1h-1zM1 8h3v1h-3z"/><path id="g104" d="M0 0h1v1h-1zM0 1h1v1h-1zM0 2h1v1h-1zM2 2h2v1h-2zM0 3h2v1h-2zM4 3h1v1h-1zM0 4h1v1h-1zM4 4h1v1h-1zM0 5h1v1h-1zM4 5h1v1h-1zM0 6h1v1h-1zM4 6h1v1h-1z"/><path id="g105" d="M2 0h1v1h-1zM1 2h2v1h-2zM2 3h1v1h-1zM2 4h1v1h-1zM2 5h1v1h-1zM1 6h3v1h-3z"/><path id="g107" d="M0 0h1v1h-1zM0 1h1v1h-1zM0 2h1v1h-1zM3 2h1v1h-1zM0 3h1v1h-1zM2 3h1v1h-1zM0 4h2v1h-2zM0 5h1v1h-1zM2 5h1v1h-1zM0 6h1v1h-1zM3 6h1v1h-1z"/><path id="g108" d="M1 0h2v1h-2zM2 1h1v1h-1zM2 2h1v1h-1zM2 3h1v1h-1zM2 4h1v1h-1zM2 5h1v1h-1zM1 6h3v1h-3z"/><path id="g109" d="M0 2h2v1h-2zM3 2h1v1h-1zM0 3h1v1h-1zM2 3h1v1h-1zM4 3h1v1h-1zM0 4h1v1h-1zM2 4h1v1h-1zM4 4h1v1h-1zM0 5h1v1h-1zM4 5h1v1h-1zM0 6h1v1h-1zM4 6h1v1h-1z"/><path id="g110" d="M0 2h1v1h-1zM2 2h2v1h-2zM0 3h2v1h-2zM4 3h1v1h-1zM0 4h1v1h-1zM4 4h1v1h-1zM0 5h1v1h-1zM4 5h1v1h-1zM0 6h1v1h-1zM4 6h1v1h-1z"/><path id="g111" d="M1 2h3v1h-3zM0 3h1v1h-1zM4 3h1v1h-1zM0 4h1v1h-1zM4 4h1v1h-1zM0 5h1v1h-1zM4 5h1v1h-1zM1 6h3v1h-3z"/><path id="g112" d="M0 2h4v1h-4zM0 3h1v1h-1zM4 3h1v1h-1zM0 4h1v1h-1zM4 4h1v1h-1zM0 5h1v1h-1zM4 5h1v1h-1zM0 6h4v1h-4zM0 7h1v1h-1zM0 8h1v1h-1z"/><path id="g114" d="M0 2h1v1h-1zM2 2h2v1h-2zM0 3h2v1h-2zM4 3h1v1h-1zM0 4h1v1h-1zM0 5h1v1h-1zM0 6h1v1h-1z"/><path id="g115" d="M1 2h4v1h-4zM0 3h1v1h-1zM1 4h3v1h-3zM4 5h1v1h-1zM0 6h4v1h-4z"/><path id="g116" d="M1 0h1v1h-1zM1 1h1v1h-1zM0 2h3v1h-3zM1 3h1v1h-1zM1 4h1v1h-1zM1 5h1v1h-1zM4 5h1v1h-1zM2 6h2v1h-2z"/><path id="g117" d="M0 2h1v1h-1zM4 2h1v1h-1zM0 3h1v1h-1zM4 3h1v1h-1zM0 4h1v1h-1zM4 4h1v1h-1zM0 5h1v1h-1zM3 5h2v1h-2zM1 6h2v1h-2zM4 6h1v1h-1z"/><path id="g119" d="M0 2h1v1h-1zM4 2h1v1h-1zM0 3h1v1h-1zM4 3h1v1h-1zM0 4h1v1h-1zM2 4h1v1h-1zM4 4h1v1h-1zM0 5h1v1h-1zM2 5h1v1h-1zM4 5h1v1h-1zM1 6h1v1h-1zM3 6h1v1h-1z"/><path id="g120" d="M0 2h1v1h-1zM4 2h1v1h-1zM1 3h1v1h-1zM3 3h1v1h-1zM2 4h1v1h-1zM1 5h1v1h-1zM3 5h1v1h-1zM0 6h1v1h-1zM4 6h1v1h-1z"/><path id="g121" d="M0 2h1v1h-1zM4 2h1v1h-1zM0 3h1v1h-1zM4 3h1v1h-1zM0 4h1v1h-1zM4 4h1v1h-1zM0 5h1v1h-1zM4 5h1v1h-1zM1 6h4v1h-4zM4 7h1v1h-1zM1 8h3v1h-3z"/><path id="g9654" d="M1 0h1v1h-1zM1 1h2v1h-2zM1 2h3v1h-3zM1 3h4v1h-4zM1 4h3v1h-3zM1 5h2v1h-2zM1 6h1v1h-1z"/></defs><g shape-rendering="crispEdges"><path fill="#000000" d="M8 6h346v2h2v234h-2v2h-346v-2h-2v-234h2z"/><path fill="#30405f" d="M4 2h346v2h2v234h-2v2h-346v-2h-2v-234h2z"/><path fill="#0f1629" d="M6 4h342v2h2v230h-2v2h-342v-2h-2v-230h2z"/><g transform="translate(18 20) scale(2)"><path fill="#1b1325" d="M4 1h5v1h-5zM3 2h1v1h-1zM9 2h1v1h-1zM2 3h1v1h-1zM10 3h1v1h-1zM2 4h1v1h-1zM10 4h1v1h-1zM2 5h1v1h-1zM10 5h1v1h-1zM2 6h1v1h-1zM10 6h1v1h-1zM2 7h1v1h-1zM10 7h1v1h-1zM3 8h1v1h-1zM9 8h1v1h-1zM4 9h5v1h-5z"/><path fill="#ffec27" d="M4 2h5v1h-5zM3 3h2v1h-2zM8 3h2v1h-2zM3 4h2v1h-2zM6 4h3v1h-3zM3 5h2v1h-2zM8 5h1v1h-1zM3 6h4v1h-4zM8 6h1v1h-1zM3 7h2v1h-2zM8 7h1v1h-1zM4 8h4v1h-4z"/><path fill="#ffa300" d="M9 4h1v1h-1zM9 5h1v1h-1zM9 6h1v1h-1zM9 7h1v1h-1zM8 8h1v1h-1z"/><path fill="#ab5236" d="M5 3h3v1h-3zM5 4h1v1h-1zM5 5h3v1h-3zM7 6h1v1h-1zM5 7h3v1h-3z"/></g><g fill="#fff1e8" transform="translate(60 24) scale(3)"><use href="#g69" x="0"/><use href="#g88" x="6"/><use href="#g80" x="12"/><use href="#g69" x="18"/><use href="#g78" x="24"/><use href="#g83" x="30"/><use href="#g73" x="36"/><use href="#g70" x="42"/><use href="#g89" x="48"/></g><g fill="#9aa3c7" transform="translate(20 62) scale(2)"><use href="#g69" x="0"/><use href="#g120" x="6"/><use href="#g112" x="12"/><use href="#g101" x="18"/><use href="#g110" x="24"/><use href="#g115" x="30"/><use href="#g101" x="36"/><use href="#g109" x="48"/><use href="#g97" x="54"/><use href="#g110" x="60"/><use href="#g97" x="66"/><use href="#g103" x="72"/><use href="#g101" x="78"/><use href="#g114" x="84"/><use href="#g119" x="96"/><use href="#g105" x="102"/><use href="#g116" x="108"/><use href="#g104" x="114"/></g><g fill="#9aa3c7" transform="translate(20 86) scale(2)"><use href="#g71" x="0"/><use href="#g111" x="6"/><use href="#g111" x="12"/><use href="#g103" x="18"/><use href="#g108" x="24"/><use href="#g101" x="30"/><use href="#g115" x="42"/><use href="#g105" x="48"/><use href="#g103" x="54"/><use href="#g110" x="60"/><use href="#g45" x="66"/><use href="#g105" x="72"/><use href="#g110" x="78"/><use href="#g97" x="90"/><use href="#g110" x="96"/><use href="#g100" x="102"/></g><g fill="#9aa3c7" transform="translate(20 110) scale(2)"><use href="#g70" x="0"/><use href="#g105" x="6"/><use href="#g114" x="12"/><use href="#g101" x="18"/><use href="#g98" x="24"/><use href="#g97" x="30"/><use href="#g115" x="36"/><use href="#g101" x="42"/><use href="#g115" x="54"/><use href="#g121" x="60"/><use href="#g110" x="66"/><use href="#g99" x="72"/></g><g fill="#7ee787" transform="translate(200 212) scale(2)"><use href="#g86" x="0"/><use href="#g73" x="6"/><use href="#g69" x="12"/><use href="#g87" x="18"/><use href="#g67" x="30"/><use href="#g79" x="36"/><use href="#g68" x="42"/><use href="#g69" x="48"/><use href="#g9654" x="60"/></g><rect x="23" y="145" width="78" height="24" fill="#000"/><rect x="20" y="142" width="78" height="24" fill="#1d2b53"/><rect x="20" y="142" width="78" height="2" fill="#2f4380"/><g fill="#fff1e8" transform="translate(30 148) scale(2)"><use href="#g82" x="0"/><use href="#g101" x="6"/><use href="#g97" x="12"/><use href="#g99" x="18"/><use href="#g116" x="24"/></g><rect x="109" y="145" width="78" height="24" fill="#000"/><rect x="106" y="142" width="78" height="24" fill="#1d2b53"/><rect x="106" y="142" width="78" height="2" fill="#2f4380"/><g fill="#fff1e8" transform="translate(116 148) scale(2)"><use href="#g82" x="0"/><use href="#g101" x="6"/><use href="#g100" x="12"/><use href="#g117" x="18"/><use href="#g120" x="24"/></g><rect x="195" y="145" width="114" height="24" fill="#000"/><rect x="192" y="142" width="114" height="24" fill="#1d2b53"/><rect x="192" y="142" width="114" height="2" fill="#2f4380"/><g fill="#fff1e8" transform="translate(202 148) scale(2)"><use href="#g70" x="0"/><use href="#g105" x="6"/><use href="#g114" x="12"/><use href="#g101" x="18"/><use href="#g98" x="24"/><use href="#g97" x="30"/><use href="#g115" x="36"/><use href="#g101" x="42"/></g><rect x="23" y="175" width="66" height="24" fill="#000"/><rect x="20" y="172" width="66" height="24" fill="#1d2b53"/><rect x="20" y="172" width="66" height="2" fill="#2f4380"/><g fill="#fff1e8" transform="translate(30 178) scale(2)"><use href="#g74" x="0"/><use href="#g101" x="6"/><use href="#g115" x="12"/><use href="#g116" x="18"/></g><rect x="97" y="175" width="102" height="24" fill="#000"/><rect x="94" y="172" width="102" height="24" fill="#1d2b53"/><rect x="94" y="172" width="102" height="2" fill="#2f4380"/><g fill="#fff1e8" transform="translate(104 178) scale(2)"><use href="#g87" x="0"/><use href="#g101" x="6"/><use href="#g98" x="12"/><use href="#g112" x="18"/><use href="#g97" x="24"/><use href="#g99" x="30"/><use href="#g107" x="36"/></g></g></svg>
