<svg xmlns="http://www.w3.org/2000/svg" width="860" height="482" viewBox="0 0 860 482" role="img" aria-labelledby="t"><title id="t">Tech stack. Languages: TypeScript, JavaScript, Python, SQL, C++; Backend: Node.js, NestJS, Express, REST, GraphQL, Socket.IO, Microservices; Ai &amp; Llm: LLM integration, LangChain, Agent workflows, ChromaDB; Cloud: AWS Lambda, API Gateway, DynamoDB, S3, SQS, EventBridge, Step Functions, CloudWatch, Serverless, GCP Pub/Sub, Cloudflare; Web &amp; Mobile: React, React Native, Next.js, In-app purchases; Data &amp; Cms: PostgreSQL, MySQL, MongoDB, ClickHouse, Databricks, Contentful; Devops: Docker, GitHub Actions, Jest, Postman, Git</title><defs><path id="s38" d="M1 0h2v1h-2zM0 1h1v1h-1zM3 1h1v1h-1zM0 2h1v1h-1zM2 2h1v1h-1zM1 3h1v1h-1zM0 4h1v1h-1zM2 4h1v1h-1zM4 4h1v1h-1zM0 5h1v1h-1zM3 5h1v1h-1zM1 6h2v1h-2zM4 6h1v1h-1z"/><path id="s43" d="M2 1h1v1h-1zM2 2h1v1h-1zM0 3h5v1h-5zM2 4h1v1h-1zM2 5h1v1h-1z"/><path id="s45" d="M0 3h5v1h-5z"/><path id="s46" d="M1 5h2v1h-2zM1 6h2v1h-2z"/><path id="s47" d="M4 0h1v1h-1zM4 1h1v1h-1zM3 2h1v1h-1zM2 3h1v1h-1zM1 4h1v1h-1zM0 5h1v1h-1zM0 6h1v1h-1z"/><path id="s51" d="M0 0h4v1h-4zM4 1h1v1h-1zM4 2h1v1h-1zM1 3h3v1h-3zM4 4h1v1h-1zM4 5h1v1h-1zM0 6h4v1h-4z"/><path id="s65" d="M1 0h3v1h-3zM0 1h1v1h-1zM4 1h1v1h-1zM0 2h1v1h-1zM4 2h1v1h-1zM0 3h5v1h-5zM0 4h1v1h-1zM4 4h1v1h-1zM0 5h1v1h-1zM4 5h1v1h-1zM0 6h1v1h-1zM4 6h1v1h-1z"/><path id="s66" d="M0 0h4v1h-4zM0 1h1v1h-1zM4 1h1v1h-1zM0 2h1v1h-1zM4 2h1v1h-1zM0 3h4v1h-4zM0 4h1v1h-1zM4 4h1v1h-1zM0 5h1v1h-1zM4 5h1v1h-1zM0 6h4v1h-4z"/><path id="s67" d="M1 0h3v1h-3zM0 1h1v1h-1zM4 1h1v1h-1zM0 2h1v1h-1zM0 3h1v1h-1zM0 4h1v1h-1zM0 5h1v1h-1zM4 5h1v1h-1zM1 6h3v1h-3z"/><path id="s68" d="M0 0h4v1h-4zM0 1h1v1h-1zM4 1h1v1h-1zM0 2h1v1h-1zM4 2h1v1h-1zM0 3h1v1h-1zM4 3h1v1h-1zM0 4h1v1h-1zM4 4h1v1h-1zM0 5h1v1h-1zM4 5h1v1h-1zM0 6h4v1h-4z"/><path id="s69" d="M0 0h5v1h-5zM0 1h1v1h-1zM0 2h1v1h-1zM0 3h4v1h-4zM0 4h1v1h-1zM0 5h1v1h-1zM0 6h5v1h-5z"/><path id="s70" d="M0 0h5v1h-5zM0 1h1v1h-1zM0 2h1v1h-1zM0 3h4v1h-4zM0 4h1v1h-1zM0 5h1v1h-1zM0 6h1v1h-1z"/><path id="s71" d="M1 0h3v1h-3zM0 1h1v1h-1zM4 1h1v1h-1zM0 2h1v1h-1zM0 3h1v1h-1zM2 3h3v1h-3zM0 4h1v1h-1zM4 4h1v1h-1zM0 5h1v1h-1zM4 5h1v1h-1zM1 6h4v1h-4z"/><path id="s72" d="M0 0h1v1h-1zM4 0h1v1h-1zM0 1h1v1h-1zM4 1h1v1h-1zM0 2h1v1h-1zM4 2h1v1h-1zM0 3h5v1h-5zM0 4h1v1h-1zM4 4h1v1h-1zM0 5h1v1h-1zM4 5h1v1h-1zM0 6h1v1h-1zM4 6h1v1h-1z"/><path id="s73" d="M1 0h3v1h-3zM2 1h1v1h-1zM2 2h1v1h-1zM2 3h1v1h-1zM2 4h1v1h-1zM2 5h1v1h-1zM1 6h3v1h-3z"/><path id="s74" d="M2 0h3v1h-3zM3 1h1v1h-1zM3 2h1v1h-1zM3 3h1v1h-1zM3 4h1v1h-1zM0 5h1v1h-1zM3 5h1v1h-1zM1 6h2v1h-2z"/><path id="s75" d="M0 0h1v1h-1zM4 0h1v1h-1zM0 1h1v1h-1zM3 1h1v1h-1zM0 2h1v1h-1zM2 2h1v1h-1zM0 3h2v1h-2zM0 4h1v1h-1zM2 4h1v1h-1zM0 5h1v1h-1zM3 5h1v1h-1zM0 6h1v1h-1zM4 6h1v1h-1z"/><path id="s76" d="M0 0h1v1h-1zM0 1h1v1h-1zM0 2h1v1h-1zM0 3h1v1h-1zM0 4h1v1h-1zM0 5h1v1h-1zM0 6h5v1h-5z"/><path id="s77" d="M0 0h1v1h-1zM4 0h1v1h-1zM0 1h2v1h-2zM3 1h2v1h-2zM0 2h1v1h-1zM2 2h1v1h-1zM4 2h1v1h-1zM0 3h1v1h-1zM2 3h1v1h-1zM4 3h1v1h-1zM0 4h1v1h-1zM4 4h1v1h-1zM0 5h1v1h-1zM4 5h1v1h-1zM0 6h1v1h-1zM4 6h1v1h-1z"/><path id="s78" d="M0 0h1v1h-1zM4 0h1v1h-1zM0 1h1v1h-1zM4 1h1v1h-1zM0 2h2v1h-2zM4 2h1v1h-1zM0 3h1v1h-1zM2 3h1v1h-1zM4 3h1v1h-1zM0 4h1v1h-1zM3 4h2v1h-2zM0 5h1v1h-1zM4 5h1v1h-1zM0 6h1v1h-1zM4 6h1v1h-1z"/><path id="s79" d="M1 0h3v1h-3zM0 1h1v1h-1zM4 1h1v1h-1zM0 2h1v1h-1zM4 2h1v1h-1zM0 3h1v1h-1zM4 3h1v1h-1zM0 4h1v1h-1zM4 4h1v1h-1zM0 5h1v1h-1zM4 5h1v1h-1zM1 6h3v1h-3z"/><path id="s80" d="M0 0h4v1h-4zM0 1h1v1h-1zM4 1h1v1h-1zM0 2h1v1h-1zM4 2h1v1h-1zM0 3h4v1h-4zM0 4h1v1h-1zM0 5h1v1h-1zM0 6h1v1h-1z"/><path id="s81" d="M1 0h3v1h-3zM0 1h1v1h-1zM4 1h1v1h-1zM0 2h1v1h-1zM4 2h1v1h-1zM0 3h1v1h-1zM4 3h1v1h-1zM0 4h1v1h-1zM2 4h1v1h-1zM4 4h1v1h-1zM0 5h1v1h-1zM3 5h1v1h-1zM1 6h2v1h-2zM4 6h1v1h-1z"/><path id="s82" d="M0 0h4v1h-4zM0 1h1v1h-1zM4 1h1v1h-1zM0 2h1v1h-1zM4 2h1v1h-1zM0 3h4v1h-4zM0 4h1v1h-1zM2 4h1v1h-1zM0 5h1v1h-1zM3 5h1v1h-1zM0 6h1v1h-1zM4 6h1v1h-1z"/><path id="s83" d="M1 0h4v1h-4zM0 1h1v1h-1zM0 2h1v1h-1zM1 3h3v1h-3zM4 4h1v1h-1zM4 5h1v1h-1zM0 6h4v1h-4z"/><path id="s84" d="M0 0h5v1h-5zM2 1h1v1h-1zM2 2h1v1h-1zM2 3h1v1h-1zM2 4h1v1h-1zM2 5h1v1h-1zM2 6h1v1h-1z"/><path id="s85" d="M0 0h1v1h-1zM4 0h1v1h-1zM0 1h1v1h-1zM4 1h1v1h-1zM0 2h1v1h-1zM4 2h1v1h-1zM0 3h1v1h-1zM4 3h1v1h-1zM0 4h1v1h-1zM4 4h1v1h-1zM0 5h1v1h-1zM4 5h1v1h-1zM1 6h3v1h-3z"/><path id="s86" d="M0 0h1v1h-1zM4 0h1v1h-1zM0 1h1v1h-1zM4 1h1v1h-1zM0 2h1v1h-1zM4 2h1v1h-1zM0 3h1v1h-1zM4 3h1v1h-1zM0 4h1v1h-1zM4 4h1v1h-1zM1 5h1v1h-1zM3 5h1v1h-1zM2 6h1v1h-1z"/><path id="s87" d="M0 0h1v1h-1zM4 0h1v1h-1zM0 1h1v1h-1zM4 1h1v1h-1zM0 2h1v1h-1zM4 2h1v1h-1zM0 3h1v1h-1zM2 3h1v1h-1zM4 3h1v1h-1zM0 4h1v1h-1zM2 4h1v1h-1zM4 4h1v1h-1zM0 5h1v1h-1zM2 5h1v1h-1zM4 5h1v1h-1zM1 6h1v1h-1zM3 6h1v1h-1z"/><path id="s97" d="M1 2h3v1h-3zM4 3h1v1h-1zM1 4h4v1h-4zM0 5h1v1h-1zM4 5h1v1h-1zM1 6h4v1h-4z"/><path id="s98" d="M0 0h1v1h-1zM0 1h1v1h-1zM0 2h4v1h-4zM0 3h1v1h-1zM4 3h1v1h-1zM0 4h1v1h-1zM4 4h1v1h-1zM0 5h1v1h-1zM4 5h1v1h-1zM0 6h4v1h-4z"/><path id="s99" d="M1 2h3v1h-3zM0 3h1v1h-1zM0 4h1v1h-1zM0 5h1v1h-1zM4 5h1v1h-1zM1 6h3v1h-3z"/><path id="s100" d="M4 0h1v1h-1zM4 1h1v1h-1zM1 2h4v1h-4zM0 3h1v1h-1zM4 3h1v1h-1zM0 4h1v1h-1zM4 4h1v1h-1zM0 5h1v1h-1zM4 5h1v1h-1zM1 6h4v1h-4z"/><path id="s101" d="M1 2h3v1h-3zM0 3h1v1h-1zM4 3h1v1h-1zM0 4h5v1h-5zM0 5h1v1h-1zM1 6h3v1h-3z"/><path id="s102" d="M2 0h2v1h-2zM1 1h1v1h-1zM4 1h1v1h-1zM1 2h1v1h-1zM0 3h3v1h-3zM1 4h1v1h-1zM1 5h1v1h-1zM1 6h1v1h-1z"/><path id="s103" d="M1 2h4v1h-4zM0 3h1v1h-1zM4 3h1v1h-1zM0 4h1v1h-1zM4 4h1v1h-1zM0 5h1v1h-1zM4 5h1v1h-1zM1 6h4v1h-4zM4 7h1v1h-1zM1 8h3v1h-3z"/><path id="s104" d="M0 0h1v1h-1zM0 1h1v1h-1zM0 2h1v1h-1zM2 2h2v1h-2zM0 3h2v1h-2zM4 3h1v1h-1zM0 4h1v1h-1zM4 4h1v1h-1zM0 5h1v1h-1zM4 5h1v1h-1zM0 6h1v1h-1zM4 6h1v1h-1z"/><path id="s105" d="M2 0h1v1h-1zM1 2h2v1h-2zM2 3h1v1h-1zM2 4h1v1h-1zM2 5h1v1h-1zM1 6h3v1h-3z"/><path id="s106" d="M3 0h1v1h-1zM2 2h2v1h-2zM3 3h1v1h-1zM3 4h1v1h-1zM3 5h1v1h-1zM3 6h1v1h-1zM0 7h1v1h-1zM3 7h1v1h-1zM1 8h2v1h-2z"/><path id="s107" d="M0 0h1v1h-1zM0 1h1v1h-1zM0 2h1v1h-1zM3 2h1v1h-1zM0 3h1v1h-1zM2 3h1v1h-1zM0 4h2v1h-2zM0 5h1v1h-1zM2 5h1v1h-1zM0 6h1v1h-1zM3 6h1v1h-1z"/><path id="s108" d="M1 0h2v1h-2zM2 1h1v1h-1zM2 2h1v1h-1zM2 3h1v1h-1zM2 4h1v1h-1zM2 5h1v1h-1zM1 6h3v1h-3z"/><path id="s109" d="M0 2h2v1h-2zM3 2h1v1h-1zM0 3h1v1h-1zM2 3h1v1h-1zM4 3h1v1h-1zM0 4h1v1h-1zM2 4h1v1h-1zM4 4h1v1h-1zM0 5h1v1h-1zM4 5h1v1h-1zM0 6h1v1h-1zM4 6h1v1h-1z"/><path id="s110" d="M0 2h1v1h-1zM2 2h2v1h-2zM0 3h2v1h-2zM4 3h1v1h-1zM0 4h1v1h-1zM4 4h1v1h-1zM0 5h1v1h-1zM4 5h1v1h-1zM0 6h1v1h-1zM4 6h1v1h-1z"/><path id="s111" d="M1 2h3v1h-3zM0 3h1v1h-1zM4 3h1v1h-1zM0 4h1v1h-1zM4 4h1v1h-1zM0 5h1v1h-1zM4 5h1v1h-1zM1 6h3v1h-3z"/><path id="s112" d="M0 2h4v1h-4zM0 3h1v1h-1zM4 3h1v1h-1zM0 4h1v1h-1zM4 4h1v1h-1zM0 5h1v1h-1zM4 5h1v1h-1zM0 6h4v1h-4zM0 7h1v1h-1zM0 8h1v1h-1z"/><path id="s114" d="M0 2h1v1h-1zM2 2h2v1h-2zM0 3h2v1h-2zM4 3h1v1h-1zM0 4h1v1h-1zM0 5h1v1h-1zM0 6h1v1h-1z"/><path id="s115" d="M1 2h4v1h-4zM0 3h1v1h-1zM1 4h3v1h-3zM4 5h1v1h-1zM0 6h4v1h-4z"/><path id="s116" d="M1 0h1v1h-1zM1 1h1v1h-1zM0 2h3v1h-3zM1 3h1v1h-1zM1 4h1v1h-1zM1 5h1v1h-1zM4 5h1v1h-1zM2 6h2v1h-2z"/><path id="s117" d="M0 2h1v1h-1zM4 2h1v1h-1zM0 3h1v1h-1zM4 3h1v1h-1zM0 4h1v1h-1zM4 4h1v1h-1zM0 5h1v1h-1zM3 5h2v1h-2zM1 6h2v1h-2zM4 6h1v1h-1z"/><path id="s118" d="M0 2h1v1h-1zM4 2h1v1h-1zM0 3h1v1h-1zM4 3h1v1h-1zM0 4h1v1h-1zM4 4h1v1h-1zM1 5h1v1h-1zM3 5h1v1h-1zM2 6h1v1h-1z"/><path id="s119" d="M0 2h1v1h-1zM4 2h1v1h-1zM0 3h1v1h-1zM4 3h1v1h-1zM0 4h1v1h-1zM2 4h1v1h-1zM4 4h1v1h-1zM0 5h1v1h-1zM2 5h1v1h-1zM4 5h1v1h-1zM1 6h1v1h-1zM3 6h1v1h-1z"/><path id="s120" d="M0 2h1v1h-1zM4 2h1v1h-1zM1 3h1v1h-1zM3 3h1v1h-1zM2 4h1v1h-1zM1 5h1v1h-1zM3 5h1v1h-1zM0 6h1v1h-1zM4 6h1v1h-1z"/><path id="s121" d="M0 2h1v1h-1zM4 2h1v1h-1zM0 3h1v1h-1zM4 3h1v1h-1zM0 4h1v1h-1zM4 4h1v1h-1zM0 5h1v1h-1zM4 5h1v1h-1zM1 6h4v1h-4zM4 7h1v1h-1zM1 8h3v1h-3z"/><linearGradient id="shine" x1="0" y1="0" x2="1" y2="0"><stop offset="0" stop-color="#fff" stop-opacity="0"/><stop offset=".5" stop-color="#fff" stop-opacity=".05"/><stop offset="1" stop-color="#fff" stop-opacity="0"/></linearGradient></defs><g shape-rendering="crispEdges"><path fill="#000000" d="M8 6h846v2h2v468h-2v2h-846v-2h-2v-468h2z"/><path fill="#30405f" d="M4 2h846v2h2v468h-2v2h-846v-2h-2v-468h2z"/><path fill="#0f1629" d="M6 4h842v2h2v464h-2v2h-842v-2h-2v-464h2z"/><g fill="#7ee787" transform="translate(22 28) scale(2)"><use href="#s76" x="0"/><use href="#s65" x="6"/><use href="#s78" x="12"/><use href="#s71" x="18"/><use href="#s85" x="24"/><use href="#s65" x="30"/><use href="#s71" x="36"/><use href="#s69" x="42"/><use href="#s83" x="48"/></g><rect x="195" y="25" width="138" height="24" fill="#000"/><rect x="192" y="22" width="138" height="24" fill="#1d2b53"/><rect x="192" y="22" width="138" height="2" fill="#2f4380"/><g fill="#fff1e8" transform="translate(202 28) scale(2)"><use href="#s84" x="0"/><use href="#s121" x="6"/><use href="#s112" x="12"/><use href="#s101" x="18"/><use href="#s83" x="24"/><use href="#s99" x="30"/><use href="#s114" x="36"/><use href="#s105" x="42"/><use href="#s112" x="48"/><use href="#s116" x="54"/></g><rect x="341" y="25" width="138" height="24" fill="#000"/><rect x="338" y="22" width="138" height="24" fill="#1d2b53"/><rect x="338" y="22" width="138" height="2" fill="#2f4380"/><g fill="#fff1e8" transform="translate(348 28) scale(2)"><use href="#s74" x="0"/><use href="#s97" x="6"/><use href="#s118" x="12"/><use href="#s97" x="18"/><use href="#s83" x="24"/><use href="#s99" x="30"/><use href="#s114" x="36"/><use href="#s105" x="42"/><use href="#s112" x="48"/><use href="#s116" x="54"/></g><rect x="487" y="25" width="90" height="24" fill="#000"/><rect x="484" y="22" width="90" height="24" fill="#1d2b53"/><rect x="484" y="22" width="90" height="2" fill="#2f4380"/><g fill="#fff1e8" transform="translate(494 28) scale(2)"><use href="#s80" x="0"/><use href="#s121" x="6"/><use href="#s116" x="12"/><use href="#s104" x="18"/><use href="#s111" x="24"/><use href="#s110" x="30"/></g><rect x="585" y="25" width="54" height="24" fill="#000"/><rect x="582" y="22" width="54" height="24" fill="#1d2b53"/><rect x="582" y="22" width="54" height="2" fill="#2f4380"/><g fill="#fff1e8" transform="translate(592 28) scale(2)"><use href="#s83" x="0"/><use href="#s81" x="6"/><use href="#s76" x="12"/></g><rect x="647" y="25" width="54" height="24" fill="#000"/><rect x="644" y="22" width="54" height="24" fill="#1d2b53"/><rect x="644" y="22" width="54" height="2" fill="#2f4380"/><g fill="#fff1e8" transform="translate(654 28) scale(2)"><use href="#s67" x="0"/><use href="#s43" x="6"/><use href="#s43" x="12"/></g><g fill="#7ee787" transform="translate(22 70) scale(2)"><use href="#s66" x="0"/><use href="#s65" x="6"/><use href="#s67" x="12"/><use href="#s75" x="18"/><use href="#s69" x="24"/><use href="#s78" x="30"/><use href="#s68" x="36"/></g><rect x="195" y="67" width="102" height="24" fill="#000"/><rect x="192" y="64" width="102" height="24" fill="#1d2b53"/><rect x="192" y="64" width="102" height="2" fill="#2f4380"/><g fill="#fff1e8" transform="translate(202 70) scale(2)"><use href="#s78" x="0"/><use href="#s111" x="6"/><use href="#s100" x="12"/><use href="#s101" x="18"/><use href="#s46" x="24"/><use href="#s106" x="30"/><use href="#s115" x="36"/></g><rect x="305" y="67" width="90" height="24" fill="#000"/><rect x="302" y="64" width="90" height="24" fill="#1d2b53"/><rect x="302" y="64" width="90" height="2" fill="#2f4380"/><g fill="#fff1e8" transform="translate(312 70) scale(2)"><use href="#s78" x="0"/><use href="#s101" x="6"/><use href="#s115" x="12"/><use href="#s116" x="18"/><use href="#s74" x="24"/><use href="#s83" x="30"/></g><rect x="403" y="67" width="102" height="24" fill="#000"/><rect x="400" y="64" width="102" height="24" fill="#1d2b53"/><rect x="400" y="64" width="102" height="2" fill="#2f4380"/><g fill="#fff1e8" transform="translate(410 70) scale(2)"><use href="#s69" x="0"/><use href="#s120" x="6"/><use href="#s112" x="12"/><use href="#s114" x="18"/><use href="#s101" x="24"/><use href="#s115" x="30"/><use href="#s115" x="36"/></g><rect x="513" y="67" width="66" height="24" fill="#000"/><rect x="510" y="64" width="66" height="24" fill="#1d2b53"/><rect x="510" y="64" width="66" height="2" fill="#2f4380"/><g fill="#fff1e8" transform="translate(520 70) scale(2)"><use href="#s82" x="0"/><use href="#s69" x="6"/><use href="#s83" x="12"/><use href="#s84" x="18"/></g><rect x="587" y="67" width="102" height="24" fill="#000"/><rect x="584" y="64" width="102" height="24" fill="#1d2b53"/><rect x="584" y="64" width="102" height="2" fill="#2f4380"/><g fill="#fff1e8" transform="translate(594 70) scale(2)"><use href="#s71" x="0"/><use href="#s114" x="6"/><use href="#s97" x="12"/><use href="#s112" x="18"/><use href="#s104" x="24"/><use href="#s81" x="30"/><use href="#s76" x="36"/></g><rect x="697" y="67" width="126" height="24" fill="#000"/><rect x="694" y="64" width="126" height="24" fill="#1d2b53"/><rect x="694" y="64" width="126" height="2" fill="#2f4380"/><g fill="#fff1e8" transform="translate(704 70) scale(2)"><use href="#s83" x="0"/><use href="#s111" x="6"/><use href="#s99" x="12"/><use href="#s107" x="18"/><use href="#s101" x="24"/><use href="#s116" x="30"/><use href="#s46" x="36"/><use href="#s73" x="42"/><use href="#s79" x="48"/></g><rect x="195" y="99" width="174" height="24" fill="#000"/><rect x="192" y="96" width="174" height="24" fill="#1d2b53"/><rect x="192" y="96" width="174" height="2" fill="#2f4380"/><g fill="#fff1e8" transform="translate(202 102) scale(2)"><use href="#s77" x="0"/><use href="#s105" x="6"/><use href="#s99" x="12"/><use href="#s114" x="18"/><use href="#s111" x="24"/><use href="#s115" x="30"/><use href="#s101" x="36"/><use href="#s114" x="42"/><use href="#s118" x="48"/><use href="#s105" x="54"/><use href="#s99" x="60"/><use href="#s101" x="66"/><use href="#s115" x="72"/></g><g fill="#7ee787" transform="translate(22 144) scale(2)"><use href="#s65" x="0"/><use href="#s73" x="6"/><use href="#s38" x="18"/><use href="#s76" x="30"/><use href="#s76" x="36"/><use href="#s77" x="42"/></g><rect x="195" y="141" width="198" height="24" fill="#000"/><rect x="192" y="138" width="198" height="24" fill="#1d2b53"/><rect x="192" y="138" width="198" height="2" fill="#2f4380"/><g fill="#fff1e8" transform="translate(202 144) scale(2)"><use href="#s76" x="0"/><use href="#s76" x="6"/><use href="#s77" x="12"/><use href="#s105" x="24"/><use href="#s110" x="30"/><use href="#s116" x="36"/><use href="#s101" x="42"/><use href="#s103" x="48"/><use href="#s114" x="54"/><use href="#s97" x="60"/><use href="#s116" x="66"/><use href="#s105" x="72"/><use href="#s111" x="78"/><use href="#s110" x="84"/></g><rect x="401" y="141" width="126" height="24" fill="#000"/><rect x="398" y="138" width="126" height="24" fill="#1d2b53"/><rect x="398" y="138" width="126" height="2" fill="#2f4380"/><g fill="#fff1e8" transform="translate(408 144) scale(2)"><use href="#s76" x="0"/><use href="#s97" x="6"/><use href="#s110" x="12"/><use href="#s103" x="18"/><use href="#s67" x="24"/><use href="#s104" x="30"/><use href="#s97" x="36"/><use href="#s105" x="42"/><use href="#s110" x="48"/></g><rect x="535" y="141" width="198" height="24" fill="#000"/><rect x="532" y="138" width="198" height="24" fill="#1d2b53"/><rect x="532" y="138" width="198" height="2" fill="#2f4380"/><g fill="#fff1e8" transform="translate(542 144) scale(2)"><use href="#s65" x="0"/><use href="#s103" x="6"/><use href="#s101" x="12"/><use href="#s110" x="18"/><use href="#s116" x="24"/><use href="#s119" x="36"/><use href="#s111" x="42"/><use href="#s114" x="48"/><use href="#s107" x="54"/><use href="#s102" x="60"/><use href="#s108" x="66"/><use href="#s111" x="72"/><use href="#s119" x="78"/><use href="#s115" x="84"/></g><rect x="195" y="173" width="114" height="24" fill="#000"/><rect x="192" y="170" width="114" height="24" fill="#1d2b53"/><rect x="192" y="170" width="114" height="2" fill="#2f4380"/><g fill="#fff1e8" transform="translate(202 176) scale(2)"><use href="#s67" x="0"/><use href="#s104" x="6"/><use href="#s114" x="12"/><use href="#s111" x="18"/><use href="#s109" x="24"/><use href="#s97" x="30"/><use href="#s68" x="36"/><use href="#s66" x="42"/></g><g fill="#7ee787" transform="translate(22 218) scale(2)"><use href="#s67" x="0"/><use href="#s76" x="6"/><use href="#s79" x="12"/><use href="#s85" x="18"/><use href="#s68" x="24"/></g><rect x="195" y="215" width="138" height="24" fill="#000"/><rect x="192" y="212" width="138" height="24" fill="#1d2b53"/><rect x="192" y="212" width="138" height="2" fill="#2f4380"/><g fill="#fff1e8" transform="translate(202 218) scale(2)"><use href="#s65" x="0"/><use href="#s87" x="6"/><use href="#s83" x="12"/><use href="#s76" x="24"/><use href="#s97" x="30"/><use href="#s109" x="36"/><use href="#s98" x="42"/><use href="#s100" x="48"/><use href="#s97" x="54"/></g><rect x="341" y="215" width="150" height="24" fill="#000"/><rect x="338" y="212" width="150" height="24" fill="#1d2b53"/><rect x="338" y="212" width="150" height="2" fill="#2f4380"/><g fill="#fff1e8" transform="translate(348 218) scale(2)"><use href="#s65" x="0"/><use href="#s80" x="6"/><use href="#s73" x="12"/><use href="#s71" x="24"/><use href="#s97" x="30"/><use href="#s116" x="36"/><use href="#s101" x="42"/><use href="#s119" x="48"/><use href="#s97" x="54"/><use href="#s121" x="60"/></g><rect x="499" y="215" width="114" height="24" fill="#000"/><rect x="496" y="212" width="114" height="24" fill="#1d2b53"/><rect x="496" y="212" width="114" height="2" fill="#2f4380"/><g fill="#fff1e8" transform="translate(506 218) scale(2)"><use href="#s68" x="0"/><use href="#s121" x="6"/><use href="#s110" x="12"/><use href="#s97" x="18"/><use href="#s109" x="24"/><use href="#s111" x="30"/><use href="#s68" x="36"/><use href="#s66" x="42"/></g><rect x="621" y="215" width="42" height="24" fill="#000"/><rect x="618" y="212" width="42" height="24" fill="#1d2b53"/><rect x="618" y="212" width="42" height="2" fill="#2f4380"/><g fill="#fff1e8" transform="translate(628 218) scale(2)"><use href="#s83" x="0"/><use href="#s51" x="6"/></g><rect x="671" y="215" width="54" height="24" fill="#000"/><rect x="668" y="212" width="54" height="24" fill="#1d2b53"/><rect x="668" y="212" width="54" height="2" fill="#2f4380"/><g fill="#fff1e8" transform="translate(678 218) scale(2)"><use href="#s83" x="0"/><use href="#s81" x="6"/><use href="#s83" x="12"/></g><rect x="195" y="247" width="150" height="24" fill="#000"/><rect x="192" y="244" width="150" height="24" fill="#1d2b53"/><rect x="192" y="244" width="150" height="2" fill="#2f4380"/><g fill="#fff1e8" transform="translate(202 250) scale(2)"><use href="#s69" x="0"/><use href="#s118" x="6"/><use href="#s101" x="12"/><use href="#s110" x="18"/><use href="#s116" x="24"/><use href="#s66" x="30"/><use href="#s114" x="36"/><use href="#s105" x="42"/><use href="#s100" x="48"/><use href="#s103" x="54"/><use href="#s101" x="60"/></g><rect x="353" y="247" width="186" height="24" fill="#000"/><rect x="350" y="244" width="186" height="24" fill="#1d2b53"/><rect x="350" y="244" width="186" height="2" fill="#2f4380"/><g fill="#fff1e8" transform="translate(360 250) scale(2)"><use href="#s83" x="0"/><use href="#s116" x="6"/><use href="#s101" x="12"/><use href="#s112" x="18"/><use href="#s70" x="30"/><use href="#s117" x="36"/><use href="#s110" x="42"/><use href="#s99" x="48"/><use href="#s116" x="54"/><use href="#s105" x="60"/><use href="#s111" x="66"/><use href="#s110" x="72"/><use href="#s115" x="78"/></g><rect x="547" y="247" width="138" height="24" fill="#000"/><rect x="544" y="244" width="138" height="24" fill="#1d2b53"/><rect x="544" y="244" width="138" height="2" fill="#2f4380"/><g fill="#fff1e8" transform="translate(554 250) scale(2)"><use href="#s67" x="0"/><use href="#s108" x="6"/><use href="#s111" x="12"/><use href="#s117" x="18"/><use href="#s100" x="24"/><use href="#s87" x="30"/><use href="#s97" x="36"/><use href="#s116" x="42"/><use href="#s99" x="48"/><use href="#s104" x="54"/></g><rect x="693" y="247" width="138" height="24" fill="#000"/><rect x="690" y="244" width="138" height="24" fill="#1d2b53"/><rect x="690" y="244" width="138" height="2" fill="#2f4380"/><g fill="#fff1e8" transform="translate(700 250) scale(2)"><use href="#s83" x="0"/><use href="#s101" x="6"/><use href="#s114" x="12"/><use href="#s118" x="18"/><use href="#s101" x="24"/><use href="#s114" x="30"/><use href="#s108" x="36"/><use href="#s101" x="42"/><use href="#s115" x="48"/><use href="#s115" x="54"/></g><rect x="195" y="279" width="150" height="24" fill="#000"/><rect x="192" y="276" width="150" height="24" fill="#1d2b53"/><rect x="192" y="276" width="150" height="2" fill="#2f4380"/><g fill="#fff1e8" transform="translate(202 282) scale(2)"><use href="#s71" x="0"/><use href="#s67" x="6"/><use href="#s80" x="12"/><use href="#s80" x="24"/><use href="#s117" x="30"/><use href="#s98" x="36"/><use href="#s47" x="42"/><use href="#s83" x="48"/><use href="#s117" x="54"/><use href="#s98" x="60"/></g><rect x="353" y="279" width="138" height="24" fill="#000"/><rect x="350" y="276" width="138" height="24" fill="#1d2b53"/><rect x="350" y="276" width="138" height="2" fill="#2f4380"/><g fill="#fff1e8" transform="translate(360 282) scale(2)"><use href="#s67" x="0"/><use href="#s108" x="6"/><use href="#s111" x="12"/><use href="#s117" x="18"/><use href="#s100" x="24"/><use href="#s102" x="30"/><use href="#s108" x="36"/><use href="#s97" x="42"/><use href="#s114" x="48"/><use href="#s101" x="54"/></g><g fill="#7ee787" transform="translate(22 324) scale(2)"><use href="#s87" x="0"/><use href="#s69" x="6"/><use href="#s66" x="12"/><use href="#s38" x="24"/><use href="#s77" x="36"/><use href="#s79" x="42"/><use href="#s66" x="48"/><use href="#s73" x="54"/><use href="#s76" x="60"/><use href="#s69" x="66"/></g><rect x="195" y="321" width="78" height="24" fill="#000"/><rect x="192" y="318" width="78" height="24" fill="#1d2b53"/><rect x="192" y="318" width="78" height="2" fill="#2f4380"/><g fill="#fff1e8" transform="translate(202 324) scale(2)"><use href="#s82" x="0"/><use href="#s101" x="6"/><use href="#s97" x="12"/><use href="#s99" x="18"/><use href="#s116" x="24"/></g><rect x="281" y="321" width="162" height="24" fill="#000"/><rect x="278" y="318" width="162" height="24" fill="#1d2b53"/><rect x="278" y="318" width="162" height="2" fill="#2f4380"/><g fill="#fff1e8" transform="translate(288 324) scale(2)"><use href="#s82" x="0"/><use href="#s101" x="6"/><use href="#s97" x="12"/><use href="#s99" x="18"/><use href="#s116" x="24"/><use href="#s78" x="36"/><use href="#s97" x="42"/><use href="#s116" x="48"/><use href="#s105" x="54"/><use href="#s118" x="60"/><use href="#s101" x="66"/></g><rect x="451" y="321" width="102" height="24" fill="#000"/><rect x="448" y="318" width="102" height="24" fill="#1d2b53"/><rect x="448" y="318" width="102" height="2" fill="#2f4380"/><g fill="#fff1e8" transform="translate(458 324) scale(2)"><use href="#s78" x="0"/><use href="#s101" x="6"/><use href="#s120" x="12"/><use href="#s116" x="18"/><use href="#s46" x="24"/><use href="#s106" x="30"/><use href="#s115" x="36"/></g><rect x="561" y="321" width="210" height="24" fill="#000"/><rect x="558" y="318" width="210" height="24" fill="#1d2b53"/><rect x="558" y="318" width="210" height="2" fill="#2f4380"/><g fill="#fff1e8" transform="translate(568 324) scale(2)"><use href="#s73" x="0"/><use href="#s110" x="6"/><use href="#s45" x="12"/><use href="#s97" x="18"/><use href="#s112" x="24"/><use href="#s112" x="30"/><use href="#s112" x="42"/><use href="#s117" x="48"/><use href="#s114" x="54"/><use href="#s99" x="60"/><use href="#s104" x="66"/><use href="#s97" x="72"/><use href="#s115" x="78"/><use href="#s101" x="84"/><use href="#s115" x="90"/></g><g fill="#7ee787" transform="translate(22 366) scale(2)"><use href="#s68" x="0"/><use href="#s65" x="6"/><use href="#s84" x="12"/><use href="#s65" x="18"/><use href="#s38" x="30"/><use href="#s67" x="42"/><use href="#s77" x="48"/><use href="#s83" x="54"/></g><rect x="195" y="363" width="138" height="24" fill="#000"/><rect x="192" y="360" width="138" height="24" fill="#1d2b53"/><rect x="192" y="360" width="138" height="2" fill="#2f4380"/><g fill="#fff1e8" transform="translate(202 366) scale(2)"><use href="#s80" x="0"/><use href="#s111" x="6"/><use href="#s115" x="12"/><use href="#s116" x="18"/><use href="#s103" x="24"/><use href="#s114" x="30"/><use href="#s101" x="36"/><use href="#s83" x="42"/><use href="#s81" x="48"/><use href="#s76" x="54"/></g><rect x="341" y="363" width="78" height="24" fill="#000"/><rect x="338" y="360" width="78" height="24" fill="#1d2b53"/><rect x="338" y="360" width="78" height="2" fill="#2f4380"/><g fill="#fff1e8" transform="translate(348 366) scale(2)"><use href="#s77" x="0"/><use href="#s121" x="6"/><use href="#s83" x="12"/><use href="#s81" x="18"/><use href="#s76" x="24"/></g><rect x="427" y="363" width="102" height="24" fill="#000"/><rect x="424" y="360" width="102" height="24" fill="#1d2b53"/><rect x="424" y="360" width="102" height="2" fill="#2f4380"/><g fill="#fff1e8" transform="translate(434 366) scale(2)"><use href="#s77" x="0"/><use href="#s111" x="6"/><use href="#s110" x="12"/><use href="#s103" x="18"/><use href="#s111" x="24"/><use href="#s68" x="30"/><use href="#s66" x="36"/></g><rect x="537" y="363" width="138" height="24" fill="#000"/><rect x="534" y="360" width="138" height="24" fill="#1d2b53"/><rect x="534" y="360" width="138" height="2" fill="#2f4380"/><g fill="#fff1e8" transform="translate(544 366) scale(2)"><use href="#s67" x="0"/><use href="#s108" x="6"/><use href="#s105" x="12"/><use href="#s99" x="18"/><use href="#s107" x="24"/><use href="#s72" x="30"/><use href="#s111" x="36"/><use href="#s117" x="42"/><use href="#s115" x="48"/><use href="#s101" x="54"/></g><rect x="683" y="363" width="138" height="24" fill="#000"/><rect x="680" y="360" width="138" height="24" fill="#1d2b53"/><rect x="680" y="360" width="138" height="2" fill="#2f4380"/><g fill="#fff1e8" transform="translate(690 366) scale(2)"><use href="#s68" x="0"/><use href="#s97" x="6"/><use href="#s116" x="12"/><use href="#s97" x="18"/><use href="#s98" x="24"/><use href="#s114" x="30"/><use href="#s105" x="36"/><use href="#s99" x="42"/><use href="#s107" x="48"/><use href="#s115" x="54"/></g><rect x="195" y="395" width="138" height="24" fill="#000"/><rect x="192" y="392" width="138" height="24" fill="#1d2b53"/><rect x="192" y="392" width="138" height="2" fill="#2f4380"/><g fill="#fff1e8" transform="translate(202 398) scale(2)"><use href="#s67" x="0"/><use href="#s111" x="6"/><use href="#s110" x="12"/><use href="#s116" x="18"/><use href="#s101" x="24"/><use href="#s110" x="30"/><use href="#s116" x="36"/><use href="#s102" x="42"/><use href="#s117" x="48"/><use href="#s108" x="54"/></g><g fill="#7ee787" transform="translate(22 440) scale(2)"><use href="#s68" x="0"/><use href="#s69" x="6"/><use href="#s86" x="12"/><use href="#s79" x="18"/><use href="#s80" x="24"/><use href="#s83" x="30"/></g><rect x="195" y="437" width="90" height="24" fill="#000"/><rect x="192" y="434" width="90" height="24" fill="#1d2b53"/><rect x="192" y="434" width="90" height="2" fill="#2f4380"/><g fill="#fff1e8" transform="translate(202 440) scale(2)"><use href="#s68" x="0"/><use href="#s111" x="6"/><use href="#s99" x="12"/><use href="#s107" x="18"/><use href="#s101" x="24"/><use href="#s114" x="30"/></g><rect x="293" y="437" width="186" height="24" fill="#000"/><rect x="290" y="434" width="186" height="24" fill="#1d2b53"/><rect x="290" y="434" width="186" height="2" fill="#2f4380"/><g fill="#fff1e8" transform="translate(300 440) scale(2)"><use href="#s71" x="0"/><use href="#s105" x="6"/><use href="#s116" x="12"/><use href="#s72" x="18"/><use href="#s117" x="24"/><use href="#s98" x="30"/><use href="#s65" x="42"/><use href="#s99" x="48"/><use href="#s116" x="54"/><use href="#s105" x="60"/><use href="#s111" x="66"/><use href="#s110" x="72"/><use href="#s115" x="78"/></g><rect x="487" y="437" width="66" height="24" fill="#000"/><rect x="484" y="434" width="66" height="24" fill="#1d2b53"/><rect x="484" y="434" width="66" height="2" fill="#2f4380"/><g fill="#fff1e8" transform="translate(494 440) scale(2)"><use href="#s74" x="0"/><use href="#s101" x="6"/><use href="#s115" x="12"/><use href="#s116" x="18"/></g><rect x="561" y="437" width="102" height="24" fill="#000"/><rect x="558" y="434" width="102" height="24" fill="#1d2b53"/><rect x="558" y="434" width="102" height="2" fill="#2f4380"/><g fill="#fff1e8" transform="translate(568 440) scale(2)"><use href="#s80" x="0"/><use href="#s111" x="6"/><use href="#s115" x="12"/><use href="#s116" x="18"/><use href="#s109" x="24"/><use href="#s97" x="30"/><use href="#s110" x="36"/></g><rect x="671" y="437" width="54" height="24" fill="#000"/><rect x="668" y="434" width="54" height="24" fill="#1d2b53"/><rect x="668" y="434" width="54" height="2" fill="#2f4380"/><g fill="#fff1e8" transform="translate(678 440) scale(2)"><use href="#s71" x="0"/><use href="#s105" x="6"/><use href="#s116" x="12"/></g><rect x="-120" y="6" width="90" height="464" fill="url(#shine)"><animate attributeName="x" values="-120;-120;860;860" keyTimes="0;.62;.9;1" dur="10s" repeatCount="indefinite"/></rect></g></svg>
