<svg xmlns="http://www.w3.org/2000/svg" width="28" height="28" viewBox="0 0 14 14" role="img" aria-labelledby="t"><title id="t">arcade</title><g shape-rendering="crispEdges"><path fill="#1b1325" d="M6 6h2v1h-2zM6 7h2v1h-2zM1 8h12v1h-12zM0 9h1v1h-1zM13 9h1v1h-1zM0 10h1v1h-1zM10 10h1v1h-1zM13 10h1v1h-1zM0 11h1v1h-1zM13 11h1v1h-1zM1 12h12v1h-12z"/><path fill="#1d2b53" d="M1 9h12v1h-12zM1 10h8v1h-8zM12 10h1v1h-1zM1 11h12v1h-12z"/><path fill="#ffec27" d="M9 10h1v1h-1z"/><path fill="#00e436" d="M11 10h1v1h-1z"/><g><animateTransform attributeName="transform" type="rotate" values="-14 7 8;14 7 8;-14 7 8" dur="1.6s" repeatCount="indefinite"/><path fill="#1b1325" d="M6 4h2v5h-2z"/><path fill="#1b1325" d="M5 1h4v1h-4zM4 2h6v3h-6zM5 5h4v1h-4z"/><path fill="#ff004d" d="M5 2h4v3h-4z"/><path fill="#fff1e8" d="M5 2h1v1h-1z"/></g></g></svg>
